<svg width="135" height="37" viewBox="0 0 135 37" fill="none" xmlns="http://www.w3.org/2000/svg">
<rect opacity="0.5" width="134.867" height="37" rx="18.5" fill="#1D1D1F"/>
<path d="M51.6965 23.868L51.7035 22.748L56.1765 18.723C56.5499 18.387 56.7995 18.0697 56.9256 17.771C57.0562 17.4677 57.1216 17.1573 57.1216 16.84C57.1216 16.4527 57.0329 16.1027 56.8555 15.79C56.6782 15.4773 56.4355 15.23 56.1275 15.048C55.8242 14.866 55.4789 14.775 55.0915 14.775C54.6902 14.775 54.3332 14.8707 54.0205 15.062C53.7079 15.2487 53.4605 15.4983 53.2785 15.811C53.1012 16.1237 53.0149 16.4643 53.0195 16.833H51.7455C51.7455 16.1983 51.8925 15.6383 52.1865 15.153C52.4805 14.663 52.8795 14.2803 53.3835 14.005C53.8922 13.725 54.4685 13.585 55.1125 13.585C55.7379 13.585 56.2979 13.7297 56.7926 14.019C57.2872 14.3037 57.6769 14.6933 57.9616 15.188C58.2509 15.678 58.3955 16.2333 58.3955 16.854C58.3955 17.2927 58.3395 17.673 58.2275 17.995C58.1202 18.317 57.9522 18.6157 57.7235 18.891C57.4949 19.1617 57.2079 19.451 56.8626 19.759L53.1455 23.098L52.9845 22.678H58.3955V23.868H51.6965ZM65.421 13.795H66.688L64 23.875H62.733L65.421 13.795ZM74.0736 24.071C73.5742 24.071 73.1099 23.98 72.6806 23.798C72.2512 23.6113 71.8802 23.35 71.5676 23.014C71.2596 22.6733 71.0332 22.2697 70.8886 21.803L72.0856 21.46C72.2396 21.9267 72.4962 22.2813 72.8556 22.524C73.2149 22.7667 73.6186 22.8857 74.0666 22.881C74.4772 22.8717 74.8319 22.7783 75.1306 22.601C75.4339 22.419 75.6672 22.1717 75.8306 21.859C75.9986 21.5463 76.0826 21.1847 76.0826 20.774C76.0826 20.1487 75.8959 19.6423 75.5226 19.255C75.1492 18.863 74.6592 18.667 74.0526 18.667C73.8846 18.667 73.7072 18.6903 73.5206 18.737C73.3386 18.7837 73.1682 18.849 73.0096 18.933L72.4076 17.946L76.1456 14.565L76.3066 14.985H71.2876V13.795H77.2306V14.992L74.0456 18.044L74.0316 17.603C74.6989 17.5563 75.2822 17.666 75.7816 17.932C76.2809 18.198 76.6682 18.5783 76.9436 19.073C77.2236 19.5677 77.3636 20.1347 77.3636 20.774C77.3636 21.418 77.2189 21.9873 76.9296 22.482C76.6402 22.9767 76.2482 23.3663 75.7536 23.651C75.2589 23.931 74.6989 24.071 74.0736 24.071Z" fill="white"/>
<path d="M115.601 18.5006L102.001 24.9092L102.001 12.092L115.601 18.5006Z" fill="white"/>
<path d="M27.8334 12.8803L15.9064 18.5006L27.8334 24.1208L27.8334 12.8803Z" fill="white" stroke="white"/>
</svg>
