<svg width="20" height="29" viewBox="0 0 20 29" fill="none" xmlns="http://www.w3.org/2000/svg">
<path d="M0.548828 1.68359C0.548828 1.13131 0.996543 0.683594 1.54883 0.683594H18.9452C19.4975 0.683594 19.9452 1.13131 19.9452 1.68359V27.995C19.9452 28.5473 19.4975 28.995 18.9452 28.995H1.54883C0.996544 28.995 0.548828 28.5473 0.548828 27.995V1.68359Z" fill="white"/>
<path d="M1.96875 2.05664H18.5232V27.6451H1.96875V2.05664Z" fill="black"/>
<path d="M1.96875 2.05664H18.5232V21.0428H1.96875V2.05664Z" fill="black"/>
<path d="M1.04492 20.9043H18.7361V22.2844H1.04492V20.9043Z" fill="white"/>
<path d="M9.53516 1.23828H10.9561V20.9705H9.53516V1.23828Z" fill="white"/>
<path d="M6.21135 12.8058C5.765 12.8058 5.40317 12.444 5.40317 11.9976C5.40317 11.5513 5.765 11.1895 6.21135 11.1895C6.6577 11.1895 7.01953 11.5513 7.01953 11.9976C7.01953 12.444 6.6577 12.8058 6.21135 12.8058Z" fill="white"/>
<path d="M14.2934 12.8058C13.847 12.8058 13.4852 12.444 13.4852 11.9976C13.4852 11.5513 13.847 11.1895 14.2934 11.1895C14.7397 11.1895 15.1016 11.5513 15.1016 11.9976C15.1016 12.444 14.7397 12.8058 14.2934 12.8058Z" fill="white"/>
<path d="M6.21135 25.755C5.765 25.755 5.40317 25.3932 5.40317 24.9469C5.40317 24.5005 5.765 24.1387 6.21135 24.1387C6.6577 24.1387 7.01953 24.5005 7.01953 24.9469C7.01953 25.3932 6.6577 25.755 6.21135 25.755Z" fill="white"/>
<path d="M14.2934 25.755C13.847 25.755 13.4852 25.3932 13.4852 24.9469C13.4852 24.5005 13.847 24.1387 14.2934 24.1387C14.7397 24.1387 15.1016 24.5005 15.1016 24.9469C15.1016 25.3932 14.7397 25.755 14.2934 25.755Z" fill="white"/>
</svg>
