<svg width="16" height="16" viewBox="0 0 16 16" fill="none" xmlns="http://www.w3.org/2000/svg">
<path fill-rule="evenodd" clip-rule="evenodd" d="M15 8C15 11.866 11.866 15 8 15C4.13401 15 1 11.866 1 8C1 4.13401 4.13401 1 8 1C11.866 1 15 4.13401 15 8ZM16 8C16 12.4183 12.4183 16 8 16C3.58172 16 0 12.4183 0 8C0 3.58172 3.58172 0 8 0C12.4183 0 16 3.58172 16 8ZM7.544 9.832C7.508 10.076 7.49 10.348 7.49 10.648H8.624C8.624 10.392 8.63 10.186 8.642 10.03C8.658 9.87 8.718 9.696 8.822 9.508C8.902 9.364 9.01 9.232 9.146 9.112C9.286 8.992 9.432 8.872 9.584 8.752C9.74 8.632 9.884 8.5 10.016 8.356C10.256 8.108 10.446 7.83 10.586 7.522C10.73 7.214 10.802 6.882 10.802 6.526C10.802 6.234 10.756 5.956 10.664 5.692C10.572 5.428 10.432 5.194 10.244 4.99C10 4.702 9.694 4.496 9.326 4.372C8.962 4.248 8.576 4.186 8.168 4.186C7.86 4.186 7.554 4.234 7.25 4.33C6.946 4.422 6.676 4.568 6.44 4.768C6.188 4.972 5.99 5.232 5.846 5.548C5.706 5.86 5.624 6.19 5.6 6.538H6.716C6.716 6.346 6.746 6.168 6.806 6.004C6.866 5.836 6.96 5.694 7.088 5.578C7.216 5.45 7.376 5.356 7.568 5.296C7.764 5.236 7.972 5.206 8.192 5.206C8.424 5.206 8.646 5.24 8.858 5.308C9.074 5.376 9.254 5.5 9.398 5.68C9.494 5.784 9.562 5.91 9.602 6.058C9.646 6.202 9.668 6.364 9.668 6.544C9.668 6.748 9.642 6.942 9.59 7.126C9.538 7.306 9.432 7.486 9.272 7.666C9.092 7.858 8.91 8.02 8.726 8.152C8.542 8.284 8.37 8.422 8.21 8.566C8.05 8.706 7.912 8.888 7.796 9.112C7.668 9.344 7.584 9.584 7.544 9.832ZM7.496 11.686V13H8.624V11.686H7.496Z" fill="#808080"/>
</svg>
