<svg xmlns="http://www.w3.org/2000/svg" width="20" height="21" viewBox="0 0 20 21" fill="none">
  <path d="M4 5.33333C4 4.59695 4.59695 4 5.33333 4H7.51949C7.80645 4 8.06121 4.18362 8.15195 4.45585L9.15049 7.45147C9.25541 7.76622 9.11292 8.11021 8.81618 8.25858L7.31134 9.011C8.04617 10.6408 9.35919 11.9538 10.989 12.6887L11.7414 11.1838C11.8898 10.8871 12.2338 10.7446 12.5485 10.8495L15.5442 11.8481C15.8164 11.9388 16 12.1936 16 12.4805V14.6667C16 15.403 15.403 16 14.6667 16H14C8.47715 16 4 11.5228 4 6V5.33333Z" stroke="black" stroke-width="1.2" stroke-linecap="round" stroke-linejoin="round"/>
</svg>