<svg xmlns="http://www.w3.org/2000/svg" width="74" height="74" viewBox="0 0 74 74" fill="none">
  <path d="M65.7945 44.2751C65.9893 43.4278 66.14 42.5325 66.2471 41.5752C66.8546 36.1498 64.5365 30.9545 61.2114 26.6939C57.8864 22.4332 53.5834 18.9186 49.6192 15.1451C47.9327 13.5413 46.2817 11.8679 44.1886 10.7068C39.8077 8.27847 33.8908 8.44411 28.8749 10.4261C23.859 12.4081 19.681 16.0201 16.4387 20.0724C13.5307 23.71 11.2347 27.9356 11.1494 32.2622C11.1047 34.5761 11.6915 36.8133 12.2725 39.0215C13.1811 42.4629 14.0897 45.9043 14.9984 49.3458C15.4893 51.2071 15.9891 53.0872 16.9981 54.7319C20.3126 60.1281 29.6188 62.5348 36.2272 61.3766C37.8107 61.0996 39.3984 60.9184 40.991 60.7696C44.0497 60.4859 47.149 60.2498 50.1237 59.3057C52.6562 58.5015 55.038 57.2967 57.1794 55.7772C62.0598 52.3162 64.6811 49.1118 65.798 44.2755L65.7945 44.2751Z" fill="#FDD994" fill-opacity="0.4"/>
  <path d="M29.7271 59.9831C30.4541 60.2018 31.2255 60.3848 32.0534 60.5334C36.7452 61.3762 41.4057 59.6566 45.3101 57.0058C49.2144 54.3549 52.5252 50.8089 56.042 47.573C57.5368 46.1962 59.0902 44.8544 60.2228 43.0979C62.5916 39.4211 62.7892 34.2563 61.3521 29.7716C59.915 25.2868 57.0093 21.4379 53.666 18.3789C50.6647 15.635 47.1157 13.3904 43.3509 13.0661C41.3374 12.8934 39.3543 13.2755 37.3968 13.6541C34.3459 14.2469 31.2949 14.8398 28.244 15.4326C26.5939 15.7528 24.9269 16.0797 23.4356 16.8637C18.5426 19.4399 15.908 27.409 16.5352 33.2337C16.6852 34.6294 16.7513 36.0232 16.7889 37.4194C16.8594 40.1008 16.886 42.8148 17.5367 45.461C18.0911 47.7141 19.0032 49.8589 20.2034 51.8124C22.9368 56.2646 25.5773 58.7336 29.7265 59.9861L29.7271 59.9831Z" fill="#FDD994" fill-opacity="0.8"/>
  <path d="M46.9828 30.9203L38.2206 26.9776C38.1049 26.9241 37.9759 26.9241 37.8602 26.9776L29.0979 30.9203C28.9422 30.9915 28.8398 31.1473 28.8398 31.3208V41.783C28.8398 41.9565 28.9377 42.1123 29.0979 42.1835L37.8602 46.1796C37.8646 46.1796 37.8646 46.1796 37.8691 46.1796C37.918 46.2019 37.9714 46.2108 38.0248 46.2152C38.0293 46.2152 38.0382 46.2197 38.0426 46.2197C38.1049 46.2197 38.1672 46.2063 38.2206 46.1796C38.2206 46.1796 38.2206 46.1796 38.2251 46.1796L46.9873 42.1835C47.143 42.1123 47.2454 41.9565 47.2454 41.783V31.3208C47.2409 31.1473 47.143 30.9915 46.9828 30.9203ZM38.4787 28.0545L45.7813 31.3386L38.4787 34.9877V28.0545ZM37.602 28.0545V34.9921L30.2995 31.3431L37.602 28.0545ZM29.7165 32.0284L37.6065 35.9712V45.0983L29.7165 41.4982V32.0284ZM38.4787 45.0983V35.9712L46.3643 32.0284V41.4982L38.4787 45.0983Z" fill="#7446B3"/>
  <path d="M51.6249 43.3369C51.3846 43.3369 51.1888 43.5327 51.1888 43.773V45.0858L48.1672 42.4959C47.9847 42.3401 47.7088 42.3579 47.5486 42.5448C47.3928 42.7273 47.4106 43.0032 47.5975 43.1634L50.5213 45.6732H49.2975C49.0572 45.6732 48.8614 45.869 48.8614 46.1093C48.8614 46.3496 49.0572 46.5454 49.2975 46.5454H51.6293C51.8696 46.5454 52.0654 46.3496 52.0654 46.1093V43.7775C52.0654 43.5327 51.8696 43.3369 51.6249 43.3369Z" fill="#7446B3"/>
  <path d="M27.9241 42.4963L24.9025 45.0862V43.7734C24.9025 43.5331 24.7067 43.3373 24.4664 43.3373C24.2261 43.3373 24.0303 43.5331 24.0303 43.7734V46.1053C24.0303 46.3456 24.2261 46.5414 24.4664 46.5414H26.7982C27.0385 46.5414 27.2343 46.3456 27.2343 46.1053C27.2343 45.865 27.0385 45.6692 26.7982 45.6692H25.5656L28.4937 43.1593C28.6762 43.0036 28.6984 42.7232 28.5427 42.5408C28.3825 42.3583 28.1065 42.3405 27.9241 42.4963Z" fill="#7446B3"/>
  <path d="M36.4803 23.0876L37.6062 21.9618V25.5574C37.6062 25.7977 37.802 25.9935 38.0423 25.9935C38.2826 25.9935 38.4784 25.7977 38.4784 25.5574V21.9618L39.6043 23.0876C39.6888 23.1722 39.8001 23.2167 39.9158 23.2167C40.027 23.2167 40.1383 23.1722 40.2273 23.0876C40.3964 22.9185 40.3964 22.6382 40.2273 22.4691L38.3538 20.5956C38.1847 20.4265 37.9043 20.4265 37.7352 20.5956L35.8573 22.4691C35.6882 22.6382 35.6882 22.9185 35.8573 23.0876C36.0264 23.2567 36.3068 23.2567 36.4803 23.0876Z" fill="#7446B3"/>
</svg>