<svg xmlns="http://www.w3.org/2000/svg" width="73" height="73" viewBox="0 0 73 73" fill="none">
  <path d="M27.6007 64.8667C28.4364 65.1064 29.3224 65.3046 30.2727 65.4625C35.6579 66.3582 40.9694 64.3203 45.4011 61.227C49.8329 58.1337 53.5718 54.0241 57.5512 50.2666C59.2425 48.6679 61.0015 47.1084 62.2726 45.0802C64.9309 40.8349 65.0807 34.9176 63.3688 29.8032C61.6569 24.6888 58.2727 20.3242 54.3989 16.8707C50.9214 13.773 46.8242 11.2551 42.5083 10.9393C40.2 10.7714 37.9347 11.2382 35.6988 11.7006C32.2138 12.4246 28.7288 13.1486 25.2439 13.8725C23.359 14.2635 21.455 14.6625 19.7588 15.5824C14.1937 18.6047 11.2946 27.7694 12.0989 34.4301C12.2912 36.0261 12.3876 37.6212 12.4513 39.2196C12.5716 42.289 12.6422 45.3965 13.4264 48.4172C14.0946 50.989 15.1707 53.4316 16.574 55.6509C19.77 60.7088 22.8302 63.4972 27.6 64.8702L27.6007 64.8667Z" fill="#FDD994" fill-opacity="0.4"/>
  <path d="M52.9437 50.0167C53.4622 49.5351 53.9807 49.0623 54.509 48.6109C61.3669 42.7182 65.104 31.7374 56.0792 24.1927C50.8184 19.795 44.5254 15.2296 37.4474 14.7319C33.0206 14.4197 29.0438 15.797 25.632 17.5346C22.5186 19.1206 19.6717 21.0617 17.813 23.5968C12.9581 30.221 15.6436 39.3713 18.4293 47.6493C19.4785 50.7696 20.6549 54.0719 23.5996 56.5553C28.2661 60.4927 35.9555 60.9191 41.1919 58.8763C46.0981 56.9638 49.4781 53.2459 52.9437 50.0167Z" fill="#FDD994" fill-opacity="0.8"/>
  <path d="M45.8362 49.8402V41.385V36.0449V31.5949C45.8362 26.188 41.4529 21.8047 36.046 21.8047C30.6392 21.8047 26.2559 26.188 26.2559 31.5949V37.38H28.4809V43.1651H35.601V49.3952H32.041" stroke="#7446B3" stroke-miterlimit="10"/>
  <path d="M34.7109 43.1641H37.381" stroke="#7446B3" stroke-miterlimit="10"/>
  <path d="M24.0303 27.1484H33.3754" stroke="#7446B3" stroke-miterlimit="10"/>
  <path d="M32.041 28.4825L33.376 27.1475L32.041 25.8125" stroke="#7446B3" stroke-miterlimit="10"/>
  <path d="M25.3662 30.7031H34.2664" stroke="#7446B3" stroke-miterlimit="10"/>
  <path d="M32.9307 32.0372L34.2657 30.7022L32.9307 29.3672" stroke="#7446B3" stroke-miterlimit="10"/>
  <path d="M50.286 32.4844H40.0508" stroke="#7446B3" stroke-miterlimit="10"/>
  <path d="M41.3858 31.1484L40.0508 32.4835L41.3858 33.8185" stroke="#7446B3" stroke-miterlimit="10"/>
  <path d="M46.7263 28.9219H39.1611" stroke="#7446B3" stroke-miterlimit="10"/>
  <path d="M40.4962 27.5859L39.1611 28.921L40.4962 30.256" stroke="#7446B3" stroke-miterlimit="10"/>
  <path d="M23.1407 27.1484H21.8057" stroke="#7446B3" stroke-miterlimit="10"/>
  <path d="M24.476 30.7031H23.5859" stroke="#7446B3" stroke-miterlimit="10"/>
  <path d="M22.6957 30.7031H21.8057" stroke="#7446B3" stroke-miterlimit="10"/>
  <path d="M47.6162 28.9219H48.5062" stroke="#7446B3" stroke-miterlimit="10"/>
  <path d="M49.3965 28.9219H50.2865" stroke="#7446B3" stroke-miterlimit="10"/>
  <path d="M45.3916 24.9219H46.2816" stroke="#7446B3" stroke-miterlimit="10"/>
  <path d="M47.1709 24.9219H48.0609" stroke="#7446B3" stroke-miterlimit="10"/>
  <path d="M48.9512 24.9219H49.8412" stroke="#7446B3" stroke-miterlimit="10"/>
  <path d="M23.5859 23.1406H24.476" stroke="#7446B3" stroke-miterlimit="10"/>
  <path d="M25.3662 23.1406H26.2562" stroke="#7446B3" stroke-miterlimit="10"/>
  <path d="M27.1455 23.1406H28.0355" stroke="#7446B3" stroke-miterlimit="10"/>
  <path d="M35.6006 25.3672H36.4906" stroke="#7446B3" stroke-miterlimit="10"/>
  <path d="M37.3809 25.3672H38.2709" stroke="#7446B3" stroke-miterlimit="10"/>
  <path d="M28.9258 33.8203H29.8158" stroke="#7446B3" stroke-miterlimit="10"/>
  <path d="M30.7061 33.8203H31.5961" stroke="#7446B3" stroke-miterlimit="10"/>
  <path d="M39.1611 25.3672H40.0511" stroke="#7446B3" stroke-miterlimit="10"/>
</svg>