<svg xmlns="http://www.w3.org/2000/svg" width="65" height="64" viewBox="0 0 65 64" fill="none">
  <path d="M6.17554 44.8606C6.57593 45.6036 7.03925 46.3533 7.57411 47.1204C10.6047 51.468 15.6228 53.7745 20.7771 54.7542C25.9314 55.734 31.3216 55.5432 36.6303 55.7582C38.8878 55.8485 41.164 56.0123 43.4347 55.5194C48.1862 54.486 52.3974 50.5765 54.7882 45.9186C57.179 41.2606 57.9147 35.9498 57.6857 30.917C57.4783 26.4008 56.448 21.8474 53.7398 18.6358C52.2908 16.9187 50.4301 15.6622 48.5923 14.4229C45.7257 12.4937 42.8591 10.5644 39.9925 8.63516C38.4425 7.59136 36.8739 6.53962 35.0846 5.98558C29.2108 4.17058 20.8795 8.37341 16.7992 13.4499C15.8212 14.666 14.7787 15.8148 13.7119 16.9432C11.6617 19.1087 9.55151 21.2656 7.98552 23.8591C6.65261 26.0675 5.68617 28.4717 5.09668 30.9516C3.75171 36.6019 3.89087 40.6185 6.17268 44.8625L6.17554 44.8606Z" fill="#FDD994" fill-opacity="0.4"/>
  <path d="M9.94402 17.6253C9.55298 18.276 9.18561 18.9785 8.83764 19.7442C6.86507 24.0839 7.38361 29.0244 8.99104 33.4614C10.5985 37.8984 13.2196 41.9807 15.4895 46.1862C16.4557 47.9741 17.3735 49.8101 18.7969 51.3405C21.7768 54.5421 26.7338 56.0058 31.4344 55.7178C36.1349 55.4297 40.581 53.5617 44.3693 51.0749C47.7679 48.8419 50.8176 45.9552 52.0593 42.3864C52.7227 40.4774 52.8408 38.4613 52.9561 36.4709C53.1331 33.3679 53.3101 30.265 53.4871 27.162C53.5832 25.4839 53.677 23.7878 53.2845 22.1493C51.9931 16.7724 44.9184 12.256 39.1188 11.4291C37.7292 11.2306 36.362 10.9513 34.9995 10.6439C32.3834 10.0516 29.7465 9.40895 27.0215 9.38768C24.7013 9.37003 22.398 9.72567 20.209 10.4077C15.2206 11.9602 12.1772 13.9111 9.94122 17.6239L9.94402 17.6253Z" fill="#FDD994" fill-opacity="0.8"/>
  <path d="M42.5951 41.3138H21.6797V20.3984H42.5951V41.3138Z" stroke="#7446B3" stroke-linecap="round" stroke-linejoin="round"/>
  <circle cx="32.1372" cy="31.7408" r="7.78764" stroke="#7446B3" stroke-linecap="round" stroke-linejoin="round"/>
  <line x1="21.9071" y1="40.6398" x2="32.1325" y2="20.615" stroke="#7446B3" stroke-linecap="round" stroke-linejoin="round"/>
  <line x1="41.9239" y1="40.6436" x2="32.1359" y2="21.0676" stroke="#7446B3" stroke-linecap="round" stroke-linejoin="round"/>
</svg>