<svg xmlns="http://www.w3.org/2000/svg" width="76" height="76" viewBox="0 0 76 76" fill="none">
  <path d="M68.1801 33.8425C68.0799 32.96 67.9213 32.0488 67.7001 31.0951C66.4472 25.6902 62.4756 21.6265 57.8575 18.8401C53.2393 16.0536 47.9386 14.3533 42.8742 12.2764C40.7201 11.3944 38.5764 10.4323 36.1834 10.1281C31.1753 9.49332 25.5758 11.9204 21.4513 15.7334C17.3268 19.5464 14.5541 24.592 12.8247 29.6985C11.2745 34.2814 10.5081 39.1901 11.8888 43.3473C12.6281 45.5704 13.9451 47.4779 15.2467 49.3602C17.2783 52.2924 19.3099 55.2246 21.3415 58.1568C22.4398 59.743 23.553 61.3435 25.0733 62.5245C30.0652 66.3975 39.7736 65.1227 45.6987 61.4844C47.1186 60.613 48.5749 59.8314 50.0469 59.0787C52.8746 57.6353 55.7572 56.2215 58.2814 54.1808C60.4303 52.4429 62.2996 50.381 63.8329 48.1112C67.328 42.9403 68.7506 38.8802 68.1836 33.8415L68.1801 33.8425Z" fill="#FDD994" fill-opacity="0.4"/>
  <path d="M56.7296 57.4174C57.3078 56.8846 57.876 56.2951 58.4417 55.6388C61.6482 51.9195 62.4718 46.9624 62.0437 42.212C61.6157 37.4615 60.0537 32.7921 58.8848 28.0944C58.3866 26.097 57.9511 24.0651 56.9148 22.1994C54.7446 18.2957 50.0762 15.5711 45.1901 14.623C40.3039 13.6749 35.2451 14.3353 30.6893 15.7716C26.6017 17.062 22.6918 19.0817 20.444 22.2399C19.2425 23.9294 18.5691 25.866 17.9058 27.7784C16.8745 30.7603 15.8432 33.7422 14.8119 36.7242C14.2537 38.3367 13.693 39.9674 13.6454 41.6691C13.4927 47.2541 19.4903 53.5117 25.1949 55.8353C26.5617 56.3924 27.8833 57.0224 29.1925 57.6788C31.7056 58.9408 34.2263 60.2576 37.0073 60.9909C39.3753 61.6148 41.8283 61.8701 44.2539 61.7769C49.7808 61.5662 53.4279 60.4581 56.7321 57.4195L56.7296 57.4174Z" fill="#FDD994" fill-opacity="0.8"/>
  <path d="M47.4606 41.3738V37.2387C47.4605 36.5986 47.2574 35.975 46.8804 35.4576C46.5035 34.9402 45.9721 34.5556 45.3628 34.3593C45.3427 34.357 45.3224 34.357 45.3023 34.3593L40.1385 33.4012L39.6998 28.3585C39.6998 27.8235 39.4873 27.3104 39.109 26.9322C38.7307 26.5539 38.2177 26.3414 37.6827 26.3414C37.1477 26.3414 36.6347 26.5539 36.2564 26.9322C35.8781 27.3104 35.6656 27.8235 35.6656 28.3585V34.44L34.1175 36.1949C33.5488 36.8397 33.235 37.6699 33.235 38.5297V41.1116C33.2351 41.8519 33.468 42.5734 33.9007 43.1741L35.6101 45.5542H35.4387C35.305 45.5542 35.1767 45.6074 35.0821 45.7019C34.9875 45.7965 34.9344 45.9248 34.9344 46.0585V49.7548C34.9344 49.8886 34.9875 50.0168 35.0821 50.1114C35.1767 50.206 35.305 50.2591 35.4387 50.2591H46.9563C47.0901 50.2591 47.2183 50.206 47.3129 50.1114C47.4075 50.0168 47.4606 49.8886 47.4606 49.7548V46.0585C47.4606 45.9248 47.4075 45.7965 47.3129 45.7019C47.2183 45.6074 47.0901 45.5542 46.9563 45.5542H46.8555L47.1177 44.4146C47.3454 43.417 47.4604 42.397 47.4606 41.3738ZM46.4521 49.2506H35.9531V46.5628H46.4521V49.2506ZM36.8708 45.5542L34.7378 42.5841C34.4294 42.155 34.2636 41.6399 34.2637 41.1116V38.5297C34.2634 37.9151 34.4875 37.3215 34.8941 36.8605L35.6858 35.9629V39.0995C35.6858 39.2333 35.7389 39.3615 35.8335 39.4561C35.9281 39.5507 36.0563 39.6038 36.1901 39.6038C36.3238 39.6038 36.4521 39.5507 36.5466 39.4561C36.6412 39.3615 36.6943 39.2333 36.6943 39.0995V28.3433C36.6943 28.0758 36.8006 27.8193 36.9897 27.6302C37.1789 27.441 37.4354 27.3348 37.7029 27.3348C37.8356 27.334 37.9672 27.3595 38.0901 27.4096C38.213 27.4598 38.3247 27.5338 38.419 27.6273C38.5183 27.7258 38.5961 27.8439 38.6473 27.9742C38.6985 28.1044 38.7221 28.2439 38.7165 28.3837L39.1905 33.8551C39.1905 33.8551 39.1905 33.8551 39.1905 33.8904C39.1952 33.9238 39.2054 33.9561 39.2208 33.9862C39.2295 34.0159 39.2413 34.0446 39.2561 34.0719C39.2734 34.0992 39.2937 34.1246 39.3166 34.1475C39.3363 34.1731 39.3602 34.1953 39.3872 34.2131L39.4628 34.2585L39.5637 34.2988H39.5939L45.1006 35.3074C45.4999 35.4469 45.8453 35.7085 46.0878 36.0551C46.3303 36.4017 46.4578 36.8158 46.4521 37.2387V41.3738C46.4527 42.3207 46.3462 43.2647 46.1344 44.1876L45.8217 45.5542H36.8708ZM33.4972 31.3236C33.4097 31.3236 33.3237 31.3008 33.2477 31.2575C33.1716 31.2141 33.1082 31.1518 33.0636 31.0765C32.5888 30.28 32.332 29.3726 32.3189 28.4455C32.3058 27.5183 32.5368 26.604 32.9889 25.7944C33.4409 24.9848 34.098 24.3084 34.8941 23.8331C35.6903 23.3578 36.5975 23.1003 37.5246 23.0865C38.4517 23.0727 39.3662 23.3031 40.1761 23.7546C40.986 24.206 41.6629 24.8626 42.1388 25.6584C42.6147 26.4542 42.8729 27.3612 42.8873 28.2883C42.9018 29.2155 42.672 30.1301 42.2212 30.9403C42.1881 30.9983 42.1439 31.0491 42.0911 31.09C42.0384 31.1309 41.9781 31.1609 41.9137 31.1785C41.8493 31.1961 41.7821 31.2008 41.7159 31.1924C41.6497 31.1839 41.5858 31.1626 41.5278 31.1294C41.4699 31.0963 41.419 31.0521 41.3782 30.9994C41.3373 30.9466 41.3072 30.8863 41.2897 30.8219C41.2721 30.7575 41.2674 30.6903 41.2758 30.6241C41.2842 30.5579 41.3056 30.494 41.3387 30.4361C41.7034 29.7802 41.8891 29.0399 41.8771 28.2895C41.8651 27.5391 41.6558 26.8051 41.2703 26.1612C40.8847 25.5174 40.3366 24.9863 39.6808 24.6213C39.0251 24.2564 38.2848 24.0705 37.5344 24.0822C36.784 24.094 36.05 24.303 35.406 24.6883C34.7619 25.0736 34.2307 25.6215 33.8655 26.2772C33.5003 26.9328 33.3141 27.673 33.3256 28.4234C33.3371 29.1738 33.5459 29.9079 33.9309 30.5521C33.9991 30.6671 34.0188 30.8045 33.9857 30.934C33.9526 31.0636 33.8694 31.1747 33.7544 31.2429C33.677 31.2913 33.5884 31.3191 33.4972 31.3236Z" fill="#7446B3"/>
</svg>