<svg xmlns="http://www.w3.org/2000/svg" width="78" height="80" viewBox="0 0 78 80" fill="none">
  <path d="M62.0367 42.7144C62.0864 41.8549 62.1434 41.0047 62.2267 40.1701C63.2805 29.3015 57.4134 15.2654 43.3427 13.5918C35.1408 12.6166 25.9061 12.1759 19.3637 16.5226C15.2711 19.2402 12.969 23.4127 11.4549 27.573C10.0734 31.3699 9.21718 35.3542 9.70918 39.2795C10.9965 49.5347 20.9083 57.2436 30.1836 63.9726C33.6791 66.5096 37.4356 69.1491 42.0447 69.7178C49.3502 70.621 56.363 65.7793 59.2043 60.046C61.8676 54.6756 61.7124 48.4692 62.0367 42.7144Z" fill="#FDD994" fill-opacity="0.4"/>
  <path d="M23.498 54.4277C24.0836 54.9512 24.6583 55.4747 25.207 56.0081C32.3707 62.9319 45.7199 66.7049 54.892 57.5933C60.2381 52.2819 65.7882 45.9285 66.3933 38.7825C66.7729 34.3131 65.0985 30.2981 62.9861 26.8534C61.058 23.7101 58.6983 20.8358 55.6163 18.9592C47.5634 14.0577 36.4395 16.7689 26.376 19.5814C22.5827 20.6407 18.5682 21.8285 15.5492 24.8015C10.7626 29.5128 10.2442 37.2762 12.7275 42.5629C15.0525 47.5162 19.5724 50.9288 23.498 54.4277Z" fill="#FDD994" fill-opacity="0.8"/>
  <path d="M49.843 39.3031C49.4659 39.3031 49.0888 39.1595 48.8017 38.8726L39.0877 29.1547C38.8446 28.9117 38.4221 28.9117 38.1791 29.1547L28.4656 38.8726C27.8911 39.4459 26.9567 39.4459 26.3822 38.873C25.8075 38.2981 25.8075 37.3637 26.382 36.7892L37.592 25.5795C38.1657 25.005 39.1 25.0046 39.675 25.5795L50.8847 36.7892C51.4592 37.3637 51.4592 38.2981 50.8847 38.8726C50.5977 39.1595 50.2203 39.3031 49.843 39.3031ZM38.6335 28.1355C39.027 28.1355 39.397 28.2889 39.6754 28.5672L49.389 38.2851C49.6395 38.535 50.0471 38.535 50.2972 38.2851C50.5475 38.0344 50.5475 37.627 50.2972 37.3767L39.0877 26.167C38.8373 25.917 38.4298 25.917 38.1795 26.167L26.9695 37.3767C26.7192 37.627 26.7192 38.0348 26.9695 38.2851C27.2198 38.535 27.6276 38.535 27.8783 38.2847L37.5916 28.5672C37.8699 28.2889 38.2399 28.1355 38.6335 28.1355Z" fill="#7446B3"/>
  <path d="M50.591 38.5789H50.595M49.843 39.3031C49.4659 39.3031 49.0888 39.1595 48.8017 38.8726L39.0877 29.1547C38.8446 28.9117 38.4221 28.9117 38.1791 29.1547L28.4656 38.8726C27.8911 39.4459 26.9567 39.4459 26.3822 38.873C25.8075 38.2981 25.8075 37.3637 26.382 36.7892L37.592 25.5795C38.1657 25.005 39.1 25.0046 39.675 25.5795L50.8847 36.7892C51.4592 37.3637 51.4592 38.2981 50.8847 38.8726C50.5977 39.1595 50.2203 39.3031 49.843 39.3031ZM38.6335 28.1355C39.027 28.1355 39.397 28.2889 39.6754 28.5672L49.389 38.2851C49.6395 38.535 50.0471 38.535 50.2972 38.2851C50.5475 38.0344 50.5475 37.627 50.2972 37.3767L39.0877 26.167C38.8373 25.917 38.4298 25.917 38.1795 26.167L26.9695 37.3767C26.7192 37.627 26.7192 38.0348 26.9695 38.2851C27.2198 38.535 27.6276 38.535 27.8783 38.2847L37.5916 28.5672C37.8699 28.2889 38.2399 28.1355 38.6335 28.1355Z" stroke="#7446B3" stroke-width="0.2"/>
  <path d="M47.7158 51.7404H29.5473C29.3179 51.7404 29.1318 51.5546 29.1318 51.3249V37.2045C29.1318 36.9749 29.3179 36.7891 29.5473 36.7891C29.7767 36.7891 29.9628 36.9749 29.9628 37.2045V50.9095H47.3004V37.2045C47.3004 36.9749 47.4864 36.7891 47.7158 36.7891C47.9452 36.7891 48.1313 36.9749 48.1313 37.2045V51.3249C48.1313 51.5546 47.9452 51.7404 47.7158 51.7404Z" fill="#7446B3" stroke="#7446B3" stroke-width="0.2"/>
  <path d="M50.9012 51.7372H26.3666C26.1372 51.7372 25.9512 51.5514 25.9512 51.3217C25.9512 51.0921 26.1372 50.9062 26.3666 50.9062H50.9012C51.1306 50.9062 51.3166 51.0921 51.3166 51.3217C51.3166 51.5514 51.1306 51.7372 50.9012 51.7372Z" fill="#7446B3" stroke="#7446B3" stroke-width="0.2"/>
  <path d="M38.6355 42.4366C38.5671 42.4366 38.4988 42.4195 38.4369 42.3859C38.2744 42.2974 34.459 40.1832 34.459 36.9906C34.459 35.6602 35.5413 34.5781 36.8714 34.5781C37.5488 34.5781 38.1825 34.8625 38.6335 35.3466C39.0816 34.8621 39.7168 34.5781 40.3996 34.5781C41.7261 34.5781 42.8051 35.6602 42.8051 36.9906C42.8051 40.1828 38.9966 42.2974 38.8345 42.3859C38.7724 42.4195 38.7041 42.4366 38.6355 42.4366ZM36.8714 35.409C35.9993 35.409 35.2899 36.1187 35.2899 36.9906C35.2899 39.317 37.8867 41.0794 38.6349 41.5387C39.3816 41.0782 41.9742 39.3113 41.9742 36.9906C41.9742 36.1187 41.2678 35.409 40.3996 35.409C39.8101 35.409 39.2751 35.732 39.0037 36.2513C38.9325 36.3881 38.7913 36.4737 38.6373 36.4745H38.6355C38.4821 36.4745 38.3412 36.3901 38.2689 36.2546C37.9908 35.7328 37.4553 35.409 36.8714 35.409Z" fill="#7446B3" stroke="#7446B3" stroke-width="0.2"/>
  <path d="M44.6833 51.7352C44.4539 51.7352 44.2678 51.5494 44.2678 51.3198V46.7939C44.2678 45.5134 43.2259 44.4715 41.9453 44.4715C40.6648 44.4715 39.6229 45.5134 39.6229 46.7939V51.3198C39.6229 51.5494 39.4369 51.7352 39.2075 51.7352C38.978 51.7352 38.792 51.5494 38.792 51.3198V46.7939C38.792 45.0554 40.2065 43.6406 41.9453 43.6406C43.6842 43.6406 45.0988 45.0554 45.0988 46.7939V51.3198C45.0988 51.5494 44.9127 51.7352 44.6833 51.7352Z" fill="#7446B3" stroke="#7446B3" stroke-width="0.2"/>
</svg>