<svg xmlns="http://www.w3.org/2000/svg" width="24" height="29" viewBox="0 0 24 29" fill="none">
  <path d="M22.5194 7.54688H0.523714C0.384819 7.54688 0.251612 7.60181 0.153398 7.69958C0.0551837 7.79736 7.63019e-06 7.92998 7.63019e-06 8.06825V22.3793C-0.000535154 22.4784 0.0278916 22.5755 0.0818242 22.6588C0.135757 22.7421 0.212866 22.808 0.303757 22.8485L11.3016 28.0623C11.3699 28.0963 11.4452 28.1139 11.5216 28.1139C11.5979 28.1139 11.6732 28.0963 11.7415 28.0623L22.7393 22.8485C22.8302 22.808 22.9074 22.7421 22.9613 22.6588C23.0152 22.5755 23.0436 22.4784 23.0431 22.3793V8.06825C23.0431 7.92998 22.9879 7.79736 22.8897 7.69958C22.7915 7.60181 22.6583 7.54688 22.5194 7.54688ZM21.9957 12.7607H21.2156C21.0767 12.7607 20.9435 12.8156 20.8453 12.9134C20.7471 13.0112 20.6919 13.1438 20.6919 13.282C20.6919 13.4203 20.7471 13.5529 20.8453 13.6507C20.9435 13.7485 21.0767 13.8034 21.2156 13.8034H21.9957V22.0456L11.5216 27.0717L1.04742 22.0456V13.8034H1.8275C1.9664 13.8034 2.0996 13.7485 2.19782 13.6507C2.29603 13.5529 2.35121 13.4203 2.35121 13.282C2.35121 13.1438 2.29603 13.0112 2.19782 12.9134C2.0996 12.8156 1.9664 12.7607 1.8275 12.7607H1.04742V8.58963H21.9957V12.7607Z" fill="white"/>
  <path fill-rule="evenodd" clip-rule="evenodd" d="M0.790039 13.2792C0.790039 13.1409 0.845215 13.0083 0.943429 12.9105C1.04164 12.8127 1.17485 12.7578 1.31375 12.7578H3.13028C3.26917 12.7578 3.40238 12.8127 3.50059 12.9105C3.59881 13.0083 3.65398 13.1409 3.65398 13.2792C3.65398 13.4175 3.59881 13.5501 3.50059 13.6479C3.40238 13.7456 3.26917 13.8006 3.13028 13.8006H1.31375C1.17485 13.8006 1.04164 13.7456 0.943429 13.6479C0.845215 13.5501 0.790039 13.4175 0.790039 13.2792ZM5.14069 13.2792C5.14069 13.1409 5.19587 13.0083 5.29408 12.9105C5.39229 12.8127 5.5255 12.7578 5.6644 12.7578H9.85405C9.99295 12.7578 10.1262 12.8127 10.2244 12.9105C10.3226 13.0083 10.3778 13.1409 10.3778 13.2792C10.3778 13.4175 10.3226 13.5501 10.2244 13.6479C10.1262 13.7456 9.99295 13.8006 9.85405 13.8006H5.6644C5.5255 13.8006 5.39229 13.7456 5.29408 13.6479C5.19587 13.5501 5.14069 13.4175 5.14069 13.2792ZM12.4726 13.2792C12.4726 13.1409 12.5278 13.0083 12.626 12.9105C12.7242 12.8127 12.8574 12.7578 12.9963 12.7578H17.1859C17.3248 12.7578 17.458 12.8127 17.5563 12.9105C17.6545 13.0083 17.7097 13.1409 17.7097 13.2792C17.7097 13.4175 17.6545 13.5501 17.5563 13.6479C17.458 13.7456 17.3248 13.8006 17.1859 13.8006H12.9963C12.8574 13.8006 12.7242 13.7456 12.626 13.6479C12.5278 13.5501 12.4726 13.4175 12.4726 13.2792ZM19.5323 12.9105C19.4341 13.0083 19.3789 13.1409 19.3789 13.2792C19.3789 13.4175 19.4341 13.5501 19.5323 13.6479C19.6305 13.7456 19.7637 13.8006 19.9026 13.8006H21.7191C21.858 13.8006 21.9912 13.7456 22.0895 13.6479C22.1877 13.5501 22.2429 13.4175 22.2429 13.2792C22.2429 13.1409 22.1877 13.0083 22.0895 12.9105C21.9912 12.8127 21.858 12.7578 21.7191 12.7578H19.9026C19.7637 12.7578 19.6305 12.8127 19.5323 12.9105Z" fill="#FBB42A"/>
  <path d="M15.2275 7.9426L9.49246 1.21875L0.791016 7.9426" stroke="white" stroke-linecap="round"/>
  <path d="M11.8112 3.98438L6.32812 7.93958" stroke="white" stroke-linecap="round"/>
</svg>