<svg xmlns="http://www.w3.org/2000/svg" width="38" height="28" viewBox="0 0 38 28" fill="none">
  <path d="M30.5793 14.2421L30.5792 14.2422L30.5823 14.2516L31.2672 16.3299C31.5437 17.206 31.2329 18.1586 30.4953 18.7057C30.4947 18.7061 30.4942 18.7065 30.4936 18.7069L28.7173 19.9993L28.7162 20.0001C28.3891 20.2394 28.1329 20.591 28.0001 20.9817L28 20.9817L27.9978 20.9886L27.3238 23.0697L27.3236 23.0704C27.041 23.9469 26.2332 24.5389 25.3104 24.5389H23.105C22.6847 24.5389 22.282 24.6736 21.9512 24.9099L21.9512 24.9099L21.9477 24.9125L20.168 26.2073L20.1672 26.2079C19.7949 26.48 19.3551 26.6141 18.9191 26.6141C18.4822 26.6141 18.0468 26.4796 17.6911 26.2082L17.6912 26.2081L17.6819 26.2014L15.9023 24.9065L15.9023 24.9065L15.8988 24.904C15.5627 24.6639 15.1588 24.5389 14.7449 24.5389H12.5396C11.6155 24.5389 10.8043 23.9461 10.5274 23.0676L10.5274 23.0675L10.5254 23.0614L9.84089 20.9843C9.84066 20.9836 9.84042 20.9829 9.84019 20.9821C9.71326 20.5871 9.46091 20.2388 9.12559 19.9984L7.34799 18.6992L7.34749 18.6988C6.60703 18.159 6.29976 17.208 6.57687 16.3358C6.57706 16.3352 6.57725 16.3346 6.57745 16.334L7.26203 14.2449L7.26204 14.2449L7.2631 14.2416C7.38941 13.8468 7.38941 13.421 7.2631 13.0263L7.26311 13.0263L7.26203 13.023L6.57693 10.9323C6.57681 10.9319 6.5767 10.9315 6.57658 10.9312C6.29523 10.0569 6.60415 9.1103 7.34251 8.56243L9.11906 7.27576C9.1192 7.27566 9.11934 7.27556 9.11948 7.27546C9.46035 7.02958 9.70738 6.68706 9.83448 6.29099L10.5199 4.19344L10.5202 4.19233C10.802 3.32329 11.6085 2.73487 12.5337 2.73487H14.7331C15.1528 2.73487 15.5477 2.597 15.8843 2.35982L15.8843 2.35985L15.8896 2.35602L17.6692 1.06713L17.671 1.06587C17.8999 0.89855 18.1638 0.785216 18.4426 0.718834C18.4436 0.718835 18.4446 0.718837 18.4456 0.718838C18.6974 0.719192 19.1734 0.71986 19.4711 0.728615C19.7201 0.793025 19.9552 0.899489 20.1676 1.05436L20.1689 1.0553L21.9485 2.3442L21.9494 2.34484C22.2851 2.58686 22.6882 2.72304 23.105 2.72304H25.3104C26.235 2.72304 27.0415 3.31085 27.3236 4.18566L27.3237 4.18589L27.9977 6.27296L27.9976 6.27296L27.9991 6.27741C28.1301 6.67036 28.3729 7.01995 28.7182 7.26917C28.7185 7.2694 28.7188 7.26962 28.7191 7.26985L30.489 8.55595C30.4893 8.55622 30.4897 8.55649 30.4901 8.55676C31.2358 9.10591 31.5482 10.0532 31.2674 10.9254C31.2673 10.9257 31.2672 10.9261 31.2671 10.9264L30.5819 13.0234L30.581 13.0263C30.4541 13.4229 30.4558 13.8408 30.5793 14.2421ZM31.1254 16.3784L31.1242 16.3749L30.44 14.2926C30.3047 13.8502 30.3077 13.4041 30.4485 12.9912L30.4485 12.9912L30.4505 12.9851L31.1363 10.8863L31.1368 10.8849C31.3997 10.0722 31.1031 9.18618 30.4112 8.68294L30.4104 8.68236L28.6341 7.39589C28.6336 7.39552 28.6331 7.39514 28.6326 7.39477C28.2684 7.12595 28.0055 6.76332 27.8605 6.32932C27.8603 6.3288 27.8601 6.32828 27.8599 6.32775L27.1827 4.24321C27.1825 4.2424 27.1822 4.24158 27.182 4.24076C26.9254 3.42668 26.1565 2.87596 25.3104 2.87596H23.105C22.6647 2.87596 22.2335 2.73429 21.8589 2.46689C21.8588 2.46677 21.8586 2.46666 21.8584 2.46654L20.0764 1.18605C20.076 1.18575 20.0755 1.18545 20.0751 1.18514C19.3798 0.680251 18.4514 0.680455 17.7563 1.18575C17.7561 1.18585 17.756 1.18595 17.7559 1.18605L15.977 2.47437L15.9762 2.47495C15.6062 2.74409 15.177 2.88187 14.7331 2.88187H12.5278C11.6827 2.88187 10.9138 3.43145 10.6566 4.23932L9.9715 6.33017L9.97147 6.33016L9.96969 6.33581C9.83725 6.75681 9.57196 7.12393 9.20097 7.39383C9.20087 7.3939 9.20077 7.39397 9.20067 7.39405L7.42184 8.68236L7.41965 8.68396C6.73801 9.1833 6.44597 10.0692 6.70686 10.8835L6.70685 10.8835L6.70787 10.8866L7.39275 12.9767C7.52622 13.4028 7.52676 13.8522 7.39243 14.2862L6.70774 16.3816L6.70729 16.383C6.44458 17.195 6.74048 18.0799 7.42475 18.5833L7.42688 18.5848L9.2065 19.8797L9.20648 19.8797L9.21106 19.8829C9.57078 20.1385 9.84297 20.5152 9.9761 20.9336L9.97607 20.9336L9.97755 20.9381L10.6618 23.0203C10.6621 23.0211 10.6624 23.022 10.6626 23.0229C10.9245 23.8444 11.6786 24.3919 12.5337 24.3919H14.7331C15.191 24.3919 15.6201 24.531 15.9769 24.7874C15.9773 24.7877 15.9777 24.7881 15.9782 24.7884L17.7549 26.087L17.7559 26.0877C18.4515 26.5936 19.3808 26.5936 20.0764 26.0877L20.0764 26.0876L21.8537 24.7946C22.2184 24.5361 22.6486 24.3978 23.0991 24.3978H25.3044C26.1624 24.3978 26.9146 23.8416 27.1756 23.0285C27.1757 23.0282 27.1758 23.0278 27.1759 23.0275L27.8543 20.9392C27.9995 20.5102 28.2747 20.1353 28.622 19.8781C28.6223 19.8778 28.6227 19.8776 28.623 19.8773L30.3994 18.579C30.3996 18.5788 30.3998 18.5787 30.4001 18.5785C31.0915 18.0752 31.3873 17.1959 31.1254 16.3784Z" fill="white" stroke="white"/>
  <path d="M22.6851 11.915L22.6869 11.9153C23.0313 11.9644 23.3149 12.2008 23.429 12.5499C23.5365 12.8853 23.4475 13.2473 23.1959 13.4913L23.1954 13.4918L21.9124 14.7393L21.7238 14.9227L21.7682 15.1821L22.0697 16.944L22.0701 16.9462C22.1318 17.2975 21.9946 17.637 21.7094 17.8428C21.5431 17.9614 21.3546 18.021 21.1672 18.021C21.02 18.021 20.8723 17.9859 20.7436 17.9161L20.7436 17.916L20.7378 17.913L19.1533 17.0794L18.9213 16.9573L18.689 17.0787L17.1045 17.9064L17.1045 17.9064L17.1015 17.908C16.7934 18.0715 16.4245 18.0471 16.1336 17.8383C15.8493 17.6301 15.7098 17.288 15.7709 16.9403L15.7713 16.9381L16.0728 15.1762L16.1172 14.9168L15.9286 14.7334L14.6456 13.4859L14.6451 13.4854C14.3934 13.2413 14.3038 12.8842 14.4128 12.5415C14.5199 12.2051 14.8049 11.9651 15.1541 11.9153L15.1541 11.9153L15.1559 11.915L16.9296 11.6548L17.1891 11.6168L17.3053 11.3818L18.0975 9.7795L18.0976 9.77951L18.0998 9.77495C18.2511 9.46093 18.5644 9.26562 18.9205 9.26562C19.2733 9.26562 19.5848 9.45841 19.7434 9.77933L19.7435 9.7795L20.5357 11.3818L20.6519 11.6168L20.9114 11.6548L22.6851 11.915ZM23.0951 13.3803L23.0951 13.3803L23.0994 13.3761C23.3873 13.0882 23.3286 12.6933 23.3286 12.7387V12.6839L23.3167 12.6303C23.2758 12.4465 23.1065 12.1201 22.6858 12.0554L22.6858 12.0553L22.6819 12.0548L20.6161 11.7537C20.5969 11.7505 20.5844 11.7441 20.5769 11.7388C20.5697 11.7336 20.5639 11.727 20.5592 11.7173L20.5592 11.7173L20.5569 11.7127L19.6287 9.83853L19.6288 9.83848L19.6239 9.82915C19.4298 9.45703 19.0752 9.40671 18.9323 9.40671C18.7894 9.40671 18.4349 9.45703 18.2407 9.82915L18.2406 9.8291L18.2359 9.83853L17.3077 11.7127L17.3077 11.7127L17.3055 11.7173C17.3008 11.727 17.295 11.7336 17.2877 11.7388C17.2803 11.7441 17.2678 11.7505 17.2486 11.7537L15.1827 12.0548L15.1827 12.0547L15.1758 12.0558C14.7453 12.1247 14.5992 12.4796 14.5679 12.5632L14.5556 12.596L14.548 12.6303C14.5476 12.6319 14.5471 12.6339 14.5466 12.6362C14.5301 12.7081 14.4445 13.0805 14.7599 13.3824L16.2536 14.8407L16.2535 14.8407L16.2572 14.8442C16.261 14.8478 16.267 14.8556 16.2714 14.8693C16.2757 14.8828 16.2768 14.8975 16.275 14.9104L15.9218 16.9647C15.8437 17.3749 16.0993 17.6283 16.2125 17.7151C16.3602 17.832 16.6799 17.9762 17.0411 17.7878L17.0429 17.7868L18.8869 16.8148C18.8941 16.8114 18.9023 16.8085 18.9106 16.8064C18.9151 16.8053 18.9189 16.8047 18.9218 16.8043L18.9252 16.804C18.9255 16.8039 18.9258 16.8039 18.9259 16.8039C18.9263 16.8039 18.9264 16.8039 18.9264 16.8039C18.9264 16.8039 18.9268 16.8039 18.9276 16.804L18.931 16.8043C18.9339 16.8047 18.9378 16.8053 18.9423 16.8064C18.9505 16.8085 18.9588 16.8114 18.966 16.8148L20.8099 17.7868L20.8118 17.7878C21.2043 17.9926 21.5335 17.7919 21.6234 17.7277C21.7413 17.6434 21.9977 17.3969 21.9334 16.9787L21.9334 16.9787L21.9319 16.9701L21.5781 14.9118C21.5729 14.8746 21.5859 14.8534 21.5956 14.8442L21.5956 14.8442L21.5993 14.8407L23.0951 13.3803Z" fill="white" stroke="white"/>
  <path d="M37.2657 13.375H33.6946C33.3753 13.375 33.1211 13.6292 33.1211 13.9485C33.1211 14.2678 33.3753 14.522 33.6946 14.522H37.2657C37.5849 14.522 37.8392 14.2678 37.8392 13.9485C37.8392 13.6351 37.579 13.375 37.2657 13.375Z" fill="#FEAA06"/>
  <path d="M33.6916 11.6266C33.8572 11.6266 34.0227 11.5556 34.135 11.4137L36.7365 8.2388C36.9375 7.99639 36.902 7.63573 36.6537 7.43471C36.4113 7.23369 36.0507 7.26917 35.8496 7.51749L33.2482 10.6924C33.0472 10.9348 33.0826 11.2955 33.331 11.4965C33.4374 11.5852 33.5675 11.6266 33.6916 11.6266Z" fill="#FEAA06"/>
  <path d="M34.1317 16.4844C33.9306 16.2419 33.57 16.2006 33.3276 16.4016C33.0852 16.6026 33.0497 16.9633 33.2448 17.2057L35.8463 20.3806C35.9586 20.5166 36.1241 20.5935 36.2897 20.5935C36.4198 20.5935 36.5439 20.5521 36.6503 20.4634C36.8927 20.2624 36.9282 19.9017 36.7331 19.6593L34.1317 16.4844Z" fill="#FEAA06"/>
  <path d="M4.15049 13.375H0.5735C0.260144 13.375 0 13.6351 0 13.9485C0 14.2678 0.254232 14.522 0.5735 14.522H4.14457C4.46384 14.522 4.71807 14.2678 4.71807 13.9485C4.72399 13.6351 4.46384 13.375 4.15049 13.375Z" fill="#FEAA06"/>
  <path d="M3.70666 11.4137C3.81899 11.5497 3.98454 11.6266 4.15009 11.6266C4.28016 11.6266 4.40432 11.5852 4.51074 11.4965C4.75315 11.2955 4.78862 10.9348 4.59352 10.6924L1.99207 7.51749C1.79105 7.26917 1.4304 7.23369 1.18208 7.43471C0.939669 7.63573 0.904195 7.99639 1.0993 8.2388L3.70666 11.4137Z" fill="#FEAA06"/>
  <path d="M3.70559 16.4862L1.10415 19.6612C0.903128 19.9036 0.938602 20.2642 1.18101 20.4653C1.28743 20.554 1.4175 20.5953 1.54166 20.5953C1.70721 20.5953 1.87276 20.5244 1.98509 20.3825L4.58654 17.2075C4.78756 16.9651 4.75208 16.6045 4.50376 16.4035C4.26727 16.2024 3.90661 16.2379 3.70559 16.4862Z" fill="#FEAA06"/>
</svg>