<svg xmlns="http://www.w3.org/2000/svg" width="27" height="28" viewBox="0 0 27 28" fill="none">
  <path d="M17.1639 8.72023H10.6599C10.4071 8.72023 10.2021 8.5153 10.2021 8.26246C10.2021 8.00962 10.4071 7.80469 10.6599 7.80469H17.1638C17.4166 7.80469 17.6216 8.00962 17.6216 8.26246C17.6216 8.5153 17.4166 8.72023 17.1639 8.72023Z" fill="#FEAA06"/>
  <path d="M17.1639 12.0484H10.6599C10.4071 12.0484 10.2021 11.8434 10.2021 11.5906C10.2021 11.3377 10.4071 11.1328 10.6599 11.1328H17.1638C17.4166 11.1328 17.6216 11.3377 17.6216 11.5906C17.6216 11.8434 17.4166 12.0484 17.1639 12.0484Z" fill="#FEAA06"/>
  <path d="M10.7273 15.1589C10.4745 15.1589 10.2695 14.954 10.2695 14.7011C10.2695 14.4483 10.4745 14.2433 10.7273 14.2433C13.1768 14.2433 15.2463 12.9662 15.2463 11.4546C15.2463 9.94273 13.1768 8.66554 10.7273 8.66554C10.4745 8.66554 10.2695 8.46061 10.2695 8.20777C10.2695 7.95493 10.4745 7.75 10.7273 7.75C13.7747 7.75 16.1618 9.37723 16.1618 11.4546C16.1618 13.5317 13.7747 15.1589 10.7273 15.1589Z" fill="#FEAA06"/>
  <path d="M15.6192 20.5431C15.4973 20.5431 15.3756 20.4947 15.2855 20.3989L10.4514 15.2556C10.2782 15.0713 10.2872 14.7817 10.4714 14.6085C10.6556 14.4355 10.9452 14.4445 11.1185 14.6285L15.9527 19.7717C16.1259 19.956 16.1169 20.2457 15.9327 20.4188C15.8442 20.5019 15.7316 20.5431 15.6192 20.5431Z" fill="#FEAA06"/>
  <circle cx="13.4477" cy="13.6664" r="12.9477" stroke="white"/>
  <path d="M23.4011 10.8828C23.7938 12.66 23.7193 14.5284 23.1867 16.2583C22.6542 17.9883 21.6868 19.5045 20.4033 20.6208" stroke="white" stroke-linecap="round"/>
  <path d="M3.55682 13.5458C3.56722 11.7358 4.05566 10.0048 4.96214 8.56549" stroke="white" stroke-linecap="round"/>
</svg>