<svg xmlns="http://www.w3.org/2000/svg" width="30" height="28" viewBox="0 0 30 28" fill="none">
  <path d="M14.3934 27.113C12.6772 27.113 11.0686 26.7901 9.56762 26.1443C8.06666 25.4985 6.75518 24.6146 5.63317 23.4926C4.51117 22.3706 3.62725 21.0591 2.98141 19.5581C2.3356 18.0572 2.0127 16.4486 2.0127 14.7323C2.0127 13.016 2.3356 11.4074 2.98141 9.90648C3.62725 8.40553 4.51117 7.09405 5.63317 5.97204C6.75518 4.85004 8.06666 3.96612 9.56762 3.32028C11.0686 2.67447 12.6772 2.35156 14.3934 2.35156C16.1097 2.35156 17.7183 2.67447 19.2193 3.32028C20.7202 3.96612 22.0317 4.85004 23.1537 5.97204C24.2757 7.09405 25.1596 8.40553 25.8055 9.90648C26.4513 11.4074 26.7742 13.016 26.7742 14.7323C26.7742 16.4486 26.4513 18.0572 25.8055 19.5581C25.1596 21.0591 24.2757 22.3706 23.1537 23.4926C22.0317 24.6146 20.7202 25.4985 19.2193 26.1443C17.7183 26.7901 16.1097 27.113 14.3934 27.113ZM14.3934 25.5655C17.3914 25.5655 19.9464 24.5094 22.0585 22.3973C24.1705 20.2853 25.2266 17.7303 25.2266 14.7323C25.2266 11.7343 24.1705 9.17932 22.0585 7.06727C19.9464 4.95519 17.3914 3.89915 14.3934 3.89915C11.3955 3.89915 8.84046 4.95519 6.7284 7.06727C4.61633 9.17932 3.56029 11.7343 3.56029 14.7323C3.56029 17.7303 4.61633 20.2853 6.7284 22.3973C8.84046 24.5094 11.3955 25.5655 14.3934 25.5655Z" fill="white"/>
  <path d="M20.6206 9.66864C20.9385 9.95767 20.9507 10.438 20.648 10.7414L13.8342 17.5707C13.6809 17.7243 13.4672 17.8097 13.2449 17.8061C13.0226 17.8024 12.8121 17.7101 12.6644 17.5515L9.93896 14.6247C9.64725 14.3115 9.67683 13.8318 10.005 13.5534C10.3331 13.275 10.8356 13.3032 11.1272 13.6164L13.2788 15.9269L19.4967 9.69482C19.7995 9.39134 20.3026 9.37965 20.6206 9.66864Z" fill="white"/>
  <path d="M14.3934 27.113C12.6772 27.113 11.0686 26.7901 9.56762 26.1443C8.06666 25.4985 6.75518 24.6146 5.63317 23.4926C4.51117 22.3706 3.62725 21.0591 2.98141 19.5581C2.3356 18.0572 2.0127 16.4486 2.0127 14.7323C2.0127 13.016 2.3356 11.4074 2.98141 9.90648C3.62725 8.40553 4.51117 7.09405 5.63317 5.97204C6.75518 4.85004 8.06666 3.96612 9.56762 3.32028C11.0686 2.67447 12.6772 2.35156 14.3934 2.35156C16.1097 2.35156 17.7183 2.67447 19.2193 3.32028C20.7202 3.96612 22.0317 4.85004 23.1537 5.97204C24.2757 7.09405 25.1596 8.40553 25.8055 9.90648C26.4513 11.4074 26.7742 13.016 26.7742 14.7323C26.7742 16.4486 26.4513 18.0572 25.8055 19.5581C25.1596 21.0591 24.2757 22.3706 23.1537 23.4926C22.0317 24.6146 20.7202 25.4985 19.2193 26.1443C17.7183 26.7901 16.1097 27.113 14.3934 27.113ZM14.3934 25.5655C17.3914 25.5655 19.9464 24.5094 22.0585 22.3973C24.1705 20.2853 25.2266 17.7303 25.2266 14.7323C25.2266 11.7343 24.1705 9.17932 22.0585 7.06727C19.9464 4.95519 17.3914 3.89915 14.3934 3.89915C11.3955 3.89915 8.84046 4.95519 6.7284 7.06727C4.61633 9.17932 3.56029 11.7343 3.56029 14.7323C3.56029 17.7303 4.61633 20.2853 6.7284 22.3973C8.84046 24.5094 11.3955 25.5655 14.3934 25.5655Z" stroke="white"/>
  <path d="M20.6206 9.66864C20.9385 9.95767 20.9507 10.438 20.648 10.7414L13.8342 17.5707C13.6809 17.7243 13.4672 17.8097 13.2449 17.8061C13.0226 17.8024 12.8121 17.7101 12.6644 17.5515L9.93896 14.6247C9.64725 14.3115 9.67683 13.8318 10.005 13.5534C10.3331 13.275 10.8356 13.3032 11.1272 13.6164L13.2788 15.9269L19.4967 9.69482C19.7995 9.39134 20.3026 9.37965 20.6206 9.66864Z" stroke="white"/>
  <path d="M0.247035 5.8526C0.0823449 5.68792 0 5.50538 0 5.30499C0 5.10458 0.0823449 4.92204 0.247035 4.75737L4.53863 0.465785C4.68345 0.32093 4.86103 0.243551 5.07135 0.233646C5.28166 0.223716 5.46917 0.301095 5.63386 0.465785C5.79852 0.630449 5.88085 0.812987 5.88085 1.0134C5.88085 1.21379 5.79852 1.39631 5.63386 1.56098L1.34223 5.8526C1.1974 5.99743 1.01982 6.07481 0.809507 6.08474C0.599189 6.09465 0.411698 6.01727 0.247035 5.8526ZM28.7822 5.8526C28.6176 6.01727 28.435 6.0996 28.2346 6.0996C28.0342 6.0996 27.8517 6.01727 27.6871 5.8526L23.3954 1.56098C23.2506 1.41615 23.1732 1.23857 23.1633 1.02826C23.1534 0.817938 23.2308 0.630449 23.3954 0.465785C23.5601 0.301095 23.7427 0.21875 23.943 0.21875C24.1435 0.21875 24.326 0.301095 24.4907 0.465785L28.7822 4.75737C28.9271 4.9022 29.0045 5.07978 29.0144 5.29009C29.0243 5.50041 28.9469 5.68792 28.7822 5.8526Z" fill="#FEAA06"/>
</svg>