<svg xmlns="http://www.w3.org/2000/svg" width="29" height="29" viewBox="0 0 29 29" fill="none">
  <rect x="21.0674" y="27.6172" width="18.4562" height="7.58363" rx="1.5" transform="rotate(-180 21.0674 27.6172)" stroke="white"/>
  <path d="M28.4349 28.1141V14.7918H7.11884L1 1.21875" stroke="white" stroke-linecap="round"/>
  <path d="M16.7033 10.9469C17.8286 10.9469 18.9192 10.5567 19.789 9.84278C20.6589 9.12888 21.2544 8.13544 21.4739 7.03174C21.6935 5.92804 21.5235 4.78236 20.993 3.78991C20.4626 2.79746 19.6044 2.01965 18.5647 1.58901C17.5251 1.15836 16.3682 1.10153 15.2914 1.4282C14.2145 1.75486 13.2842 2.44481 12.659 3.38048C12.0338 4.31616 11.7524 5.43966 11.8627 6.55957" stroke="#FEAA06" stroke-linecap="round"/>
</svg>