<svg xmlns="http://www.w3.org/2000/svg" width="29" height="28" viewBox="0 0 29 28" fill="none">
  <g clip-path="url(#clip0_7534_6019)">
    <path d="M14.5081 26.31L14.6791 26.654L14.5081 26.31ZM14.5081 26.31L14.5087 26.3019L14.528 26.3106L14.6791 26.6439L14.5081 26.31Z" fill="white" stroke="white"/>
    <path d="M28.5441 23.7339C28.2955 23.7339 28.093 23.9352 28.093 24.1824V25.5324L24.9675 22.869C24.7787 22.7088 24.4933 22.7271 24.3276 22.9193C24.1665 23.1069 24.1849 23.3907 24.3782 23.5554L27.4025 26.1364H26.1367C25.8881 26.1364 25.6855 26.3378 25.6855 26.5849C25.6855 26.832 25.8881 27.0334 26.1367 27.0334H28.5487C28.7973 27.0334 28.9998 26.832 28.9998 26.5849V24.1869C28.9998 23.9352 28.7973 23.7339 28.5441 23.7339Z" fill="#FEAA06"/>
    <path d="M4.02778 22.8694L0.902222 25.5328V24.1828C0.902222 23.9357 0.699683 23.7343 0.451111 23.7343C0.20254 23.7343 0 23.9357 0 24.1828V26.5807C0 26.8279 0.20254 27.0292 0.451111 27.0292H2.86317C3.11175 27.0292 3.31429 26.8279 3.31429 26.5807C3.31429 26.3336 3.11175 26.1323 2.86317 26.1323H1.5881L4.61698 23.5513C4.80571 23.3911 4.82873 23.1028 4.66762 22.9152C4.5019 22.7275 4.21651 22.7092 4.02778 22.8694Z" fill="#FEAA06"/>
    <path d="M12.8787 2.91189L14.0433 1.75409V5.45172C14.0433 5.69884 14.2458 5.90019 14.4944 5.90019C14.7429 5.90019 14.9455 5.69884 14.9455 5.45172V1.75409L16.1101 2.91189C16.1976 2.99884 16.3126 3.0446 16.4323 3.0446C16.5474 3.0446 16.6625 2.99884 16.7545 2.91189C16.9295 2.73799 16.9295 2.44968 16.7545 2.27578L14.8166 0.349174C14.6417 0.175275 14.3517 0.175275 14.1768 0.349174L12.2342 2.27578C12.0593 2.44968 12.0593 2.73799 12.2342 2.91189C12.4091 3.08578 12.6991 3.08578 12.8787 2.91189Z" fill="#FEAA06"/>
  </g>
  <defs>
    <clipPath id="clip0_7534_6019">
      <rect width="29" height="27" fill="white" transform="translate(0 0.21875)"/>
    </clipPath>
  </defs>
</svg>