<svg width="23" height="35" viewBox="0 0 23 35" fill="none" xmlns="http://www.w3.org/2000/svg">
<path d="M1.4079 4.40308L16.0117 8.16586L15.4376 33.8652L1.4079 29.3985L0.770332 4.84954L1.4079 4.40308Z" fill="#2C2C2C"/>
<path d="M10.4595 17.4382C10.5828 17.4382 10.7049 17.4625 10.8188 17.5096C10.9327 17.5568 11.0362 17.6259 11.1234 17.713C11.2105 17.8002 11.2797 17.9036 11.3269 18.0175C11.3741 18.1314 11.3984 18.2535 11.3984 18.3767C11.3985 18.5 11.3742 18.6221 11.3271 18.736C11.2799 18.8499 11.2108 18.9534 11.1236 19.0405C11.0365 19.1277 10.933 19.1969 10.8192 19.2441C10.7053 19.2913 10.5832 19.3156 10.4599 19.3156C10.211 19.3157 9.97221 19.2168 9.79613 19.0408C9.62005 18.8648 9.52109 18.6261 9.52104 18.3771C9.52098 18.1282 9.61983 17.8894 9.79583 17.7133C9.97183 17.5372 10.2106 17.4383 10.4595 17.4382Z" fill="#7A7A7A"/>
<path d="M4.28982 28.0832C3.77139 28.0832 3.35111 27.6629 3.35111 27.1445C3.35111 26.6261 3.77139 26.2058 4.28982 26.2058C4.80824 26.2058 5.22852 26.6261 5.22852 27.1445C5.22852 27.6629 4.80824 28.0832 4.28982 28.0832Z" fill="#7A7A7A"/>
<path d="M10.9203 30.336C10.4016 30.336 9.98113 29.9155 9.98113 29.3969C9.98113 28.8782 10.4016 28.4578 10.9203 28.4578C11.4389 28.4578 11.8594 28.8782 11.8594 29.3969C11.8594 29.9155 11.4389 30.336 10.9203 30.336Z" fill="#7A7A7A"/>
<path d="M7.40334 0.463623L22.4297 4.2201V29.3701L15.8071 34.4L0.781612 29.6885L0.335571 3.7854L7.40334 0.463623ZM14.9806 8.86782L7.8981 6.92406V25.8199L14.9806 28.0849V8.86782ZM1.67285 28.7964L14.9806 33.127V28.7233L1.60229 24.4448L1.67285 28.7964ZM1.59221 23.8034L7.29036 25.6258V6.75732L1.29065 5.11092L1.59221 23.8034Z" fill="#6B6B6B"/>
<path d="M5.22732 18.1106C4.70889 18.1106 4.28861 17.6903 4.28861 17.1719C4.28861 16.6534 4.70889 16.2332 5.22732 16.2332C5.74574 16.2332 6.16602 16.6534 6.16602 17.1719C6.16602 17.6903 5.74574 18.1106 5.22732 18.1106Z" fill="#7A7A7A"/>
<path d="M22.4297 4.21362L16.01 7.95078V34.3936L22.4297 29.3637V4.21362Z" fill="#4A4A4A"/>
<path d="M22.4297 4.2201L16.01 8.17272L0.336002 3.7854L7.40335 0.463623L22.4297 4.2201Z" fill="#969696"/>
</svg>
