<svg width="43" height="43" viewBox="0 0 43 43" fill="none" xmlns="http://www.w3.org/2000/svg">
<circle opacity="0.5" cx="21.5" cy="21.5" r="21.5" fill="black"/>
<path d="M24.9795 21.2022L26.3427 19.839C26.4419 20.2101 26.5 20.598 26.5 21C26.5 23.4814 24.4814 25.5 22 25.5C21.598 25.5 21.21 25.4419 20.839 25.3427L22.2021 23.9796C22.9226 23.9307 23.601 23.6223 24.1116 23.1117C24.6223 22.601 24.9306 21.9227 24.9795 21.2022ZM33.9055 20.6357C33.8132 20.4698 32.5049 18.1772 29.9474 16.2344L28.8559 17.3258C30.7208 18.697 31.9024 20.2962 32.3676 21.0012C31.4787 22.3547 27.9915 27 22 27C21.1015 27 20.266 26.8851 19.4798 26.7017L18.2474 27.9342C19.3804 28.2816 20.6258 28.5 22 28.5C29.8512 28.5 33.7437 21.6555 33.9055 21.3644C33.9675 21.2529 34 21.1275 34 21C34 20.8725 33.9675 20.7472 33.9055 20.6357ZM30.7802 13.2803L14.2802 29.7803C14.1338 29.9267 13.9418 30 13.75 30C13.5582 30 13.3662 29.9267 13.2197 29.7803C13.15 29.7107 13.0948 29.628 13.057 29.5371C13.0193 29.4461 12.9999 29.3485 12.9999 29.25C12.9999 29.1516 13.0193 29.054 13.057 28.963C13.0948 28.8721 13.15 28.7894 13.2197 28.7198L15.319 26.6205C11.9252 24.5717 10.2008 21.5558 10.0945 21.3644C10.0325 21.2529 10 21.1275 10 21C10 20.8724 10.0325 20.747 10.0945 20.6355C10.2563 20.3445 14.1488 13.5 22 13.5C24.03 13.5 25.7884 13.9632 27.2916 14.6479L29.7197 12.2198C30.0128 11.9267 30.4874 11.9267 30.7802 12.2198C31.0731 12.5129 31.0733 12.9874 30.7802 13.2803ZM16.4374 25.5021L18.3362 23.6033C17.8118 22.8675 17.5 21.9704 17.5 21C17.5 18.5187 19.5186 16.5 22 16.5C22.9703 16.5 23.8675 16.8119 24.6032 17.3361L26.1387 15.8007C24.9255 15.3149 23.547 15 22 15C16.0084 15 12.5213 19.6454 11.6325 20.9989C12.1969 21.8543 13.8192 24.0195 16.4374 25.5021ZM19.425 22.5143L23.5142 18.4251C23.0682 18.1617 22.5546 18 22 18C20.3459 18 19 19.3459 19 21C19 21.5547 19.1616 22.0682 19.425 22.5143Z" fill="white"/>
</svg>
