<svg width="23" height="35" viewBox="0 0 23 35" fill="none" xmlns="http://www.w3.org/2000/svg">
<path d="M1.26727 4.7207L15.8711 8.48348L15.297 34.1829L1.26727 29.7162L0.629707 5.16716L1.26727 4.7207Z" fill="white"/>
<path d="M10.3189 17.7559C10.4422 17.7558 10.5642 17.7801 10.6781 17.8272C10.792 17.8744 10.8955 17.9435 10.9827 18.0307C11.0699 18.1178 11.1391 18.2213 11.1863 18.3351C11.2335 18.449 11.2578 18.5711 11.2578 18.6944C11.2578 18.8176 11.2336 18.9397 11.1864 19.0536C11.1393 19.1675 11.0702 19.271 10.983 19.3582C10.8959 19.4454 10.7924 19.5145 10.6785 19.5617C10.5647 19.6089 10.4426 19.6332 10.3193 19.6333C10.0704 19.6333 9.83158 19.5345 9.6555 19.3585C9.47942 19.1825 9.38047 18.9437 9.38041 18.6948C9.38036 18.4458 9.4792 18.207 9.6552 18.0309C9.8312 17.8549 10.0699 17.7559 10.3189 17.7559Z" fill="#858585"/>
<path d="M4.14919 28.4008C3.63076 28.4008 3.21049 27.9806 3.21049 27.4621C3.21049 26.9437 3.63076 26.5234 4.14919 26.5234C4.66762 26.5234 5.08789 26.9437 5.08789 27.4621C5.08789 27.9806 4.66762 28.4008 4.14919 28.4008Z" fill="#858585"/>
<path d="M10.7796 30.6536C10.261 30.6536 9.84051 30.2332 9.84051 29.7145C9.84051 29.1958 10.261 28.7754 10.7796 28.7754C11.2983 28.7754 11.7188 29.1958 11.7188 29.7145C11.7188 30.2332 11.2983 30.6536 10.7796 30.6536Z" fill="#858585"/>
<path d="M7.26271 0.78125L22.2891 4.53773V29.6878L15.6665 34.7177L0.640987 30.0061L0.194946 4.10303L7.26271 0.78125ZM14.8399 9.18545L7.75747 7.24169V26.1375L14.8399 28.4026V9.18545ZM1.53223 29.114L14.8399 33.4447V29.041L1.46167 24.7624L1.53223 29.114ZM1.45159 24.1211L7.14973 25.9435V7.07495L1.15003 5.42855L1.45159 24.1211Z" fill="#858585"/>
<path d="M5.08669 18.4282C4.56826 18.4282 4.14799 18.0079 4.14799 17.4895C4.14799 16.9711 4.56826 16.5508 5.08669 16.5508C5.60512 16.5508 6.02539 16.9711 6.02539 17.4895C6.02539 18.0079 5.60512 18.4282 5.08669 18.4282Z" fill="#858585"/>
<path d="M22.2891 4.53125L15.8694 8.26841V34.7112L22.2891 29.6813V4.53125Z" fill="#B8B8B8"/>
<path d="M22.2891 4.53773L15.8694 8.49035L0.195377 4.10303L7.26272 0.78125L22.2891 4.53773Z" fill="#D2D2D2"/>
</svg>
