<svg width="124" height="40" viewBox="0 0 124 40" fill="none" xmlns="http://www.w3.org/2000/svg">
<circle cx="20" cy="20" r="19.5" stroke="white"/>
<circle opacity="0.3" cx="20" cy="20" r="7.5" fill="#1D1D1F" stroke="white"/>
<path d="M0.5 2C0.5 1.17157 1.17157 0.5 2 0.5H25C33.0081 0.5 39.5 6.99187 39.5 15V38C39.5 38.8284 38.8284 39.5 38 39.5H2C1.17157 39.5 0.5 38.8284 0.5 38V2Z" fill="#C9B293" stroke="white"/>
<path d="M22.207 17.7969C22 17.7969 21.8323 17.9646 21.8323 18.1716V25.2535C21.8323 25.4603 22 25.6282 22.207 25.6282C22.4139 25.6282 22.5817 25.4603 22.5817 25.2535V18.1716C22.5817 17.9646 22.4139 17.7969 22.207 17.7969Z" fill="black"/>
<path d="M17.7858 17.7969C17.5789 17.7969 17.4111 17.9646 17.4111 18.1716V25.2535C17.4111 25.4603 17.5789 25.6282 17.7858 25.6282C17.9928 25.6282 18.1605 25.4603 18.1605 25.2535V18.1716C18.1605 17.9646 17.9928 17.7969 17.7858 17.7969Z" fill="black"/>
<path d="M14.5632 16.7634V25.9953C14.5632 26.541 14.7633 27.0534 15.1129 27.4211C15.4608 27.7898 15.945 27.9991 16.4517 28H23.5413C24.0481 27.9991 24.5323 27.7898 24.8801 27.4211C25.2296 27.0534 25.4297 26.541 25.4297 25.9953V16.7634C26.1245 16.5789 26.5748 15.9077 26.4818 15.1947C26.3887 14.4819 25.7815 13.9487 25.0625 13.9485H23.144V13.4801C23.1462 13.0863 22.9905 12.708 22.7116 12.4298C22.4328 12.1517 22.054 11.9968 21.6601 12H18.3329C17.939 11.9968 17.5602 12.1517 17.2813 12.4298C17.0025 12.708 16.8468 13.0863 16.849 13.4801V13.9485H14.9305C14.2115 13.9487 13.6042 14.4819 13.5111 15.1947C13.4182 15.9077 13.8684 16.5789 14.5632 16.7634ZM23.5413 27.2506H16.4517C15.8111 27.2506 15.3127 26.7002 15.3127 25.9953V16.7963H24.6803V25.9953C24.6803 26.7002 24.1819 27.2506 23.5413 27.2506ZM17.5984 13.4801C17.5959 13.285 17.6726 13.0972 17.811 12.9595C17.9494 12.8218 18.1376 12.7461 18.3329 12.7495H21.6601C21.8554 12.7461 22.0436 12.8218 22.1819 12.9595C22.3204 13.0971 22.3971 13.285 22.3946 13.4801V13.9485H17.5984V13.4801ZM14.9305 14.6979H25.0625C25.435 14.6979 25.737 14.9999 25.737 15.3724C25.737 15.7449 25.435 16.0469 25.0625 16.0469H14.9305C14.558 16.0469 14.256 15.7449 14.256 15.3724C14.256 14.9999 14.558 14.6979 14.9305 14.6979Z" fill="black"/>
<path d="M19.9958 17.7969C19.7888 17.7969 19.6211 17.9646 19.6211 18.1716V25.2535C19.6211 25.4603 19.7888 25.6282 19.9958 25.6282C20.2028 25.6282 20.3705 25.4603 20.3705 25.2535V18.1716C20.3705 17.9646 20.2028 17.7969 19.9958 17.7969Z" fill="black"/>
<path d="M43.84 15V6.36H47.254C47.338 6.36 47.438 6.364 47.554 6.372C47.67 6.376 47.782 6.388 47.89 6.408C48.358 6.48 48.75 6.64 49.066 6.888C49.386 7.136 49.626 7.45 49.786 7.83C49.946 8.206 50.026 8.624 50.026 9.084C50.026 9.54 49.944 9.958 49.78 10.338C49.62 10.714 49.38 11.028 49.06 11.28C48.744 11.528 48.354 11.688 47.89 11.76C47.782 11.776 47.67 11.788 47.554 11.796C47.438 11.804 47.338 11.808 47.254 11.808H44.908V15H43.84ZM44.908 10.794H47.218C47.294 10.794 47.38 10.79 47.476 10.782C47.576 10.774 47.67 10.76 47.758 10.74C48.034 10.676 48.258 10.56 48.43 10.392C48.606 10.22 48.734 10.02 48.814 9.792C48.894 9.56 48.934 9.324 48.934 9.084C48.934 8.844 48.894 8.61 48.814 8.382C48.734 8.15 48.606 7.948 48.43 7.776C48.258 7.604 48.034 7.488 47.758 7.428C47.67 7.404 47.576 7.39 47.476 7.386C47.38 7.378 47.294 7.374 47.218 7.374H44.908V10.794ZM53.9722 15.18C53.3362 15.18 52.7802 15.04 52.3042 14.76C51.8322 14.476 51.4642 14.082 51.2002 13.578C50.9362 13.07 50.8042 12.478 50.8042 11.802C50.8042 11.094 50.9342 10.482 51.1942 9.966C51.4542 9.446 51.8162 9.046 52.2802 8.766C52.7482 8.482 53.2962 8.34 53.9242 8.34C54.5762 8.34 55.1302 8.49 55.5862 8.79C56.0462 9.09 56.3902 9.518 56.6182 10.074C56.8502 10.63 56.9502 11.292 56.9182 12.06H55.8382V11.676C55.8262 10.88 55.6642 10.286 55.3522 9.894C55.0402 9.498 54.5762 9.3 53.9602 9.3C53.3002 9.3 52.7982 9.512 52.4542 9.936C52.1102 10.36 51.9382 10.968 51.9382 11.76C51.9382 12.524 52.1102 13.116 52.4542 13.536C52.7982 13.956 53.2882 14.166 53.9242 14.166C54.3522 14.166 54.7242 14.068 55.0402 13.872C55.3562 13.676 55.6042 13.394 55.7842 13.026L56.8102 13.38C56.5582 13.952 56.1782 14.396 55.6702 14.712C55.1662 15.024 54.6002 15.18 53.9722 15.18ZM51.5782 12.06V11.202H56.3662V12.06H51.5782ZM59.9789 15.18C59.4949 15.18 59.0889 15.092 58.7609 14.916C58.4369 14.736 58.1909 14.5 58.0229 14.208C57.8589 13.916 57.7769 13.596 57.7769 13.248C57.7769 12.908 57.8409 12.614 57.9689 12.366C58.1009 12.114 58.2849 11.906 58.5209 11.742C58.7569 11.574 59.0389 11.442 59.3669 11.346C59.6749 11.262 60.0189 11.19 60.3989 11.13C60.7829 11.066 61.1709 11.008 61.5629 10.956C61.9549 10.904 62.3209 10.854 62.6609 10.806L62.2769 11.028C62.2889 10.452 62.1729 10.026 61.9289 9.75C61.6889 9.474 61.2729 9.336 60.6809 9.336C60.2889 9.336 59.9449 9.426 59.6489 9.606C59.3569 9.782 59.1509 10.07 59.0309 10.47L58.0169 10.164C58.1729 9.596 58.4749 9.15 58.9229 8.826C59.3709 8.502 59.9609 8.34 60.6929 8.34C61.2809 8.34 61.7849 8.446 62.2049 8.658C62.6289 8.866 62.9329 9.182 63.1169 9.606C63.2089 9.806 63.2669 10.024 63.2909 10.26C63.3149 10.492 63.3269 10.736 63.3269 10.992V15H62.3789V13.446L62.6009 13.59C62.3569 14.114 62.0149 14.51 61.5749 14.778C61.1389 15.046 60.6069 15.18 59.9789 15.18ZM60.1409 14.286C60.5249 14.286 60.8569 14.218 61.1369 14.082C61.4209 13.942 61.6489 13.76 61.8209 13.536C61.9929 13.308 62.1049 13.06 62.1569 12.792C62.2169 12.592 62.2489 12.37 62.2529 12.126C62.2609 11.878 62.2649 11.688 62.2649 11.556L62.6369 11.718C62.2889 11.766 61.9469 11.812 61.6109 11.856C61.2749 11.9 60.9569 11.948 60.6569 12C60.3569 12.048 60.0869 12.106 59.8469 12.174C59.6709 12.23 59.5049 12.302 59.3489 12.39C59.1969 12.478 59.0729 12.592 58.9769 12.732C58.8849 12.868 58.8389 13.038 58.8389 13.242C58.8389 13.418 58.8829 13.586 58.9709 13.746C59.0629 13.906 59.2029 14.036 59.3909 14.136C59.5829 14.236 59.8329 14.286 60.1409 14.286ZM69.5009 15V11.754C69.5009 11.446 69.4729 11.15 69.4169 10.866C69.3649 10.582 69.2709 10.328 69.1349 10.104C69.0029 9.876 68.8229 9.696 68.5949 9.564C68.3709 9.432 68.0869 9.366 67.7429 9.366C67.4749 9.366 67.2309 9.412 67.0109 9.504C66.7949 9.592 66.6089 9.728 66.4529 9.912C66.2969 10.096 66.1749 10.328 66.0869 10.608C66.0029 10.884 65.9609 11.21 65.9609 11.586L65.2589 11.37C65.2589 10.742 65.3709 10.204 65.5949 9.756C65.8229 9.304 66.1409 8.958 66.5489 8.718C66.9609 8.474 67.4449 8.352 68.0009 8.352C68.4209 8.352 68.7789 8.418 69.0749 8.55C69.3709 8.682 69.6169 8.858 69.8129 9.078C70.0089 9.294 70.1629 9.538 70.2749 9.81C70.3869 10.078 70.4649 10.352 70.5089 10.632C70.5569 10.908 70.5809 11.17 70.5809 11.418V15H69.5009ZM64.8809 15V8.52H65.8409V10.254H65.9609V15H64.8809ZM74.6008 15.168C74.1848 15.168 73.8268 15.102 73.5268 14.97C73.2308 14.838 72.9848 14.662 72.7888 14.442C72.5928 14.222 72.4388 13.978 72.3268 13.71C72.2148 13.442 72.1348 13.168 72.0868 12.888C72.0428 12.608 72.0208 12.346 72.0208 12.102V8.52H73.1008V11.766C73.1008 12.07 73.1288 12.364 73.1848 12.648C73.2408 12.932 73.3348 13.188 73.4668 13.416C73.6028 13.644 73.7828 13.824 74.0068 13.956C74.2348 14.088 74.5188 14.154 74.8588 14.154C75.1268 14.154 75.3708 14.108 75.5908 14.016C75.8108 13.924 75.9988 13.788 76.1548 13.608C76.3108 13.424 76.4308 13.192 76.5148 12.912C76.5988 12.632 76.6408 12.306 76.6408 11.934L77.3428 12.15C77.3428 12.774 77.2288 13.312 77.0008 13.764C76.7768 14.216 76.4588 14.564 76.0468 14.808C75.6388 15.048 75.1568 15.168 74.6008 15.168ZM76.7608 15V13.266H76.6408V8.52H77.7148V15H76.7608ZM83.0127 15C82.6287 15.076 82.2487 15.106 81.8727 15.09C81.5007 15.078 81.1687 15.004 80.8767 14.868C80.5847 14.728 80.3627 14.512 80.2107 14.22C80.0827 13.964 80.0127 13.706 80.0007 13.446C79.9927 13.182 79.9887 12.884 79.9887 12.552V6.72H81.0567V12.504C81.0567 12.768 81.0587 12.994 81.0627 13.182C81.0707 13.37 81.1127 13.532 81.1887 13.668C81.3327 13.924 81.5607 14.074 81.8727 14.118C82.1887 14.162 82.5687 14.15 83.0127 14.082V15ZM78.6747 9.402V8.52H83.0127V9.402H78.6747ZM90.2826 15.18C89.4226 15.18 88.6926 14.99 88.0926 14.61C87.4926 14.23 87.0346 13.702 86.7186 13.026C86.4066 12.35 86.2506 11.568 86.2506 10.68C86.2506 9.792 86.4066 9.01 86.7186 8.334C87.0346 7.658 87.4926 7.13 88.0926 6.75C88.6926 6.37 89.4226 6.18 90.2826 6.18C91.2826 6.18 92.1046 6.434 92.7486 6.942C93.3966 7.45 93.8426 8.134 94.0866 8.994L93.0006 9.282C92.8246 8.638 92.5106 8.13 92.0586 7.758C91.6066 7.386 91.0146 7.2 90.2826 7.2C89.6386 7.2 89.1026 7.346 88.6746 7.638C88.2466 7.93 87.9246 8.338 87.7086 8.862C87.4926 9.382 87.3826 9.988 87.3786 10.68C87.3746 11.368 87.4806 11.974 87.6966 12.498C87.9126 13.018 88.2366 13.426 88.6686 13.722C89.1006 14.014 89.6386 14.16 90.2826 14.16C91.0146 14.16 91.6066 13.974 92.0586 13.602C92.5106 13.226 92.8246 12.718 93.0006 12.078L94.0866 12.366C93.8426 13.222 93.3966 13.906 92.7486 14.418C92.1046 14.926 91.2826 15.18 90.2826 15.18ZM95.4025 15V8.52H96.3565V10.086L96.2005 9.882C96.2765 9.682 96.3745 9.498 96.4945 9.33C96.6185 9.162 96.7565 9.024 96.9085 8.916C97.0765 8.78 97.2665 8.676 97.4785 8.604C97.6905 8.532 97.9065 8.49 98.1265 8.478C98.3465 8.462 98.5525 8.476 98.7445 8.52V9.522C98.5205 9.462 98.2745 9.446 98.0065 9.474C97.7385 9.502 97.4905 9.6 97.2625 9.768C97.0545 9.916 96.8925 10.096 96.7765 10.308C96.6645 10.52 96.5865 10.75 96.5425 10.998C96.4985 11.242 96.4765 11.492 96.4765 11.748V15H95.4025ZM102.57 15.18C101.934 15.18 101.378 15.04 100.902 14.76C100.43 14.476 100.062 14.082 99.7979 13.578C99.5339 13.07 99.4019 12.478 99.4019 11.802C99.4019 11.094 99.5319 10.482 99.7919 9.966C100.052 9.446 100.414 9.046 100.878 8.766C101.346 8.482 101.894 8.34 102.522 8.34C103.174 8.34 103.728 8.49 104.184 8.79C104.644 9.09 104.988 9.518 105.216 10.074C105.448 10.63 105.548 11.292 105.516 12.06H104.436V11.676C104.424 10.88 104.262 10.286 103.95 9.894C103.638 9.498 103.174 9.3 102.558 9.3C101.898 9.3 101.396 9.512 101.052 9.936C100.708 10.36 100.536 10.968 100.536 11.76C100.536 12.524 100.708 13.116 101.052 13.536C101.396 13.956 101.886 14.166 102.522 14.166C102.95 14.166 103.322 14.068 103.638 13.872C103.954 13.676 104.202 13.394 104.382 13.026L105.408 13.38C105.156 13.952 104.776 14.396 104.268 14.712C103.764 15.024 103.198 15.18 102.57 15.18ZM100.176 12.06V11.202H104.964V12.06H100.176ZM108.577 15.18C108.093 15.18 107.687 15.092 107.359 14.916C107.035 14.736 106.789 14.5 106.621 14.208C106.457 13.916 106.375 13.596 106.375 13.248C106.375 12.908 106.439 12.614 106.567 12.366C106.699 12.114 106.883 11.906 107.119 11.742C107.355 11.574 107.637 11.442 107.965 11.346C108.273 11.262 108.617 11.19 108.997 11.13C109.381 11.066 109.769 11.008 110.161 10.956C110.553 10.904 110.919 10.854 111.259 10.806L110.875 11.028C110.887 10.452 110.771 10.026 110.527 9.75C110.287 9.474 109.871 9.336 109.279 9.336C108.887 9.336 108.543 9.426 108.247 9.606C107.955 9.782 107.749 10.07 107.629 10.47L106.615 10.164C106.771 9.596 107.073 9.15 107.521 8.826C107.969 8.502 108.559 8.34 109.291 8.34C109.879 8.34 110.383 8.446 110.803 8.658C111.227 8.866 111.531 9.182 111.715 9.606C111.807 9.806 111.865 10.024 111.889 10.26C111.913 10.492 111.925 10.736 111.925 10.992V15H110.977V13.446L111.199 13.59C110.955 14.114 110.613 14.51 110.173 14.778C109.737 15.046 109.205 15.18 108.577 15.18ZM108.739 14.286C109.123 14.286 109.455 14.218 109.735 14.082C110.019 13.942 110.247 13.76 110.419 13.536C110.591 13.308 110.703 13.06 110.755 12.792C110.815 12.592 110.847 12.37 110.851 12.126C110.859 11.878 110.863 11.688 110.863 11.556L111.235 11.718C110.887 11.766 110.545 11.812 110.209 11.856C109.873 11.9 109.555 11.948 109.255 12C108.955 12.048 108.685 12.106 108.445 12.174C108.269 12.23 108.103 12.302 107.947 12.39C107.795 12.478 107.671 12.592 107.575 12.732C107.483 12.868 107.437 13.038 107.437 13.242C107.437 13.418 107.481 13.586 107.569 13.746C107.661 13.906 107.801 14.036 107.989 14.136C108.181 14.236 108.431 14.286 108.739 14.286ZM121.231 15L121.237 10.854C121.237 10.37 121.107 9.992 120.847 9.72C120.591 9.444 120.257 9.306 119.845 9.306C119.605 9.306 119.377 9.362 119.161 9.474C118.945 9.582 118.769 9.754 118.633 9.99C118.497 10.222 118.429 10.52 118.429 10.884L117.865 10.656C117.857 10.196 117.951 9.794 118.147 9.45C118.347 9.102 118.619 8.832 118.963 8.64C119.307 8.448 119.695 8.352 120.127 8.352C120.803 8.352 121.335 8.558 121.723 8.97C122.111 9.378 122.305 9.928 122.305 10.62L122.299 15H121.231ZM113.479 15V8.52H114.433V10.254H114.553V15H113.479ZM117.361 15L117.367 10.896C117.367 10.4 117.239 10.012 116.983 9.732C116.727 9.448 116.387 9.306 115.963 9.306C115.543 9.306 115.203 9.45 114.943 9.738C114.683 10.026 114.553 10.408 114.553 10.884L113.989 10.548C113.989 10.128 114.089 9.752 114.289 9.42C114.489 9.088 114.761 8.828 115.105 8.64C115.449 8.448 115.839 8.352 116.275 8.352C116.711 8.352 117.091 8.444 117.415 8.628C117.739 8.812 117.989 9.076 118.165 9.42C118.341 9.76 118.429 10.166 118.429 10.638L118.423 15H117.361ZM46.396 31.18C45.952 31.18 45.538 31.088 45.154 30.904C44.774 30.72 44.448 30.468 44.176 30.148C43.908 29.824 43.716 29.452 43.6 29.032L44.626 28.756C44.698 29.04 44.826 29.286 45.01 29.494C45.194 29.698 45.408 29.858 45.652 29.974C45.9 30.086 46.158 30.142 46.426 30.142C46.778 30.142 47.094 30.058 47.374 29.89C47.658 29.718 47.882 29.492 48.046 29.212C48.21 28.928 48.292 28.618 48.292 28.282C48.292 27.934 48.206 27.62 48.034 27.34C47.866 27.056 47.64 26.832 47.356 26.668C47.072 26.504 46.762 26.422 46.426 26.422C46.046 26.422 45.72 26.502 45.448 26.662C45.18 26.818 44.968 27.01 44.812 27.238L43.864 26.878L44.128 22.36H48.766V23.374H44.644L45.118 22.93L44.896 26.548L44.662 26.242C44.902 25.986 45.188 25.788 45.52 25.648C45.856 25.508 46.198 25.438 46.546 25.438C47.082 25.438 47.562 25.564 47.986 25.816C48.41 26.064 48.746 26.404 48.994 26.836C49.242 27.264 49.366 27.746 49.366 28.282C49.366 28.814 49.23 29.3 48.958 29.74C48.686 30.176 48.324 30.526 47.872 30.79C47.424 31.05 46.932 31.18 46.396 31.18ZM53.7169 31.18C53.1569 31.18 52.6569 31.054 52.2169 30.802C51.7809 30.546 51.4349 30.2 51.1789 29.764C50.9269 29.324 50.8009 28.824 50.8009 28.264V25.096C50.8009 24.536 50.9269 24.036 51.1789 23.596C51.4349 23.156 51.7809 22.81 52.2169 22.558C52.6569 22.306 53.1569 22.18 53.7169 22.18C54.2769 22.18 54.7769 22.306 55.2169 22.558C55.6569 22.81 56.0029 23.156 56.2549 23.596C56.5069 24.036 56.6329 24.536 56.6329 25.096V28.264C56.6329 28.824 56.5069 29.324 56.2549 29.764C56.0029 30.2 55.6569 30.546 55.2169 30.802C54.7769 31.054 54.2769 31.18 53.7169 31.18ZM53.7169 30.154C54.0569 30.154 54.3649 30.072 54.6409 29.908C54.9169 29.744 55.1369 29.524 55.3009 29.248C55.4649 28.968 55.5469 28.66 55.5469 28.324V25.03C55.5469 24.69 55.4649 24.382 55.3009 24.106C55.1369 23.83 54.9169 23.61 54.6409 23.446C54.3649 23.282 54.0569 23.2 53.7169 23.2C53.3809 23.2 53.0729 23.282 52.7929 23.446C52.5169 23.61 52.2969 23.83 52.1329 24.106C51.9689 24.382 51.8869 24.69 51.8869 25.03V28.324C51.8869 28.66 51.9689 28.968 52.1329 29.248C52.2969 29.524 52.5169 29.744 52.7929 29.908C53.0729 30.072 53.3809 30.154 53.7169 30.154ZM58.0727 30.994L58.0787 30.034L61.9127 26.584C62.2327 26.296 62.4467 26.024 62.5547 25.768C62.6667 25.508 62.7227 25.242 62.7227 24.97C62.7227 24.638 62.6467 24.338 62.4947 24.07C62.3427 23.802 62.1347 23.59 61.8707 23.434C61.6107 23.278 61.3147 23.2 60.9827 23.2C60.6387 23.2 60.3327 23.282 60.0647 23.446C59.7967 23.606 59.5847 23.82 59.4287 24.088C59.2767 24.356 59.2027 24.648 59.2067 24.964H58.1147C58.1147 24.42 58.2407 23.94 58.4927 23.524C58.7447 23.104 59.0867 22.776 59.5187 22.54C59.9547 22.3 60.4487 22.18 61.0007 22.18C61.5367 22.18 62.0167 22.304 62.4407 22.552C62.8647 22.796 63.1987 23.13 63.4427 23.554C63.6907 23.974 63.8147 24.45 63.8147 24.982C63.8147 25.358 63.7667 25.684 63.6707 25.96C63.5787 26.236 63.4347 26.492 63.2387 26.728C63.0427 26.96 62.7967 27.208 62.5007 27.472L59.3147 30.334L59.1767 29.974H63.8147V30.994H58.0727ZM67.6202 31.168C67.1922 31.168 66.7942 31.09 66.4262 30.934C66.0582 30.774 65.7402 30.55 65.4722 30.262C65.2082 29.97 65.0142 29.624 64.8902 29.224L65.9162 28.93C66.0482 29.33 66.2682 29.634 66.5762 29.842C66.8842 30.05 67.2302 30.152 67.6142 30.148C67.9662 30.14 68.2702 30.06 68.5262 29.908C68.7862 29.752 68.9862 29.54 69.1262 29.272C69.2702 29.004 69.3422 28.694 69.3422 28.342C69.3422 27.806 69.1822 27.372 68.8622 27.04C68.5422 26.704 68.1222 26.536 67.6022 26.536C67.4582 26.536 67.3062 26.556 67.1462 26.596C66.9902 26.636 66.8442 26.692 66.7082 26.764L66.1922 25.918L69.3962 23.02L69.5342 23.38H65.2322V22.36H70.3262V23.386L67.5962 26.002L67.5842 25.624C68.1562 25.584 68.6562 25.678 69.0842 25.906C69.5122 26.134 69.8442 26.46 70.0802 26.884C70.3202 27.308 70.4402 27.794 70.4402 28.342C70.4402 28.894 70.3162 29.382 70.0682 29.806C69.8202 30.23 69.4842 30.564 69.0602 30.808C68.6362 31.048 68.1562 31.168 67.6202 31.168Z" fill="#2F2F2F"/>
</svg>
