<svg width="40" height="40" viewBox="0 0 40 40" fill="none" xmlns="http://www.w3.org/2000/svg">
<g clip-path="url(#clip0_358_8850)">
<path d="M30.6667 21.3332C30.2202 21.3365 29.7746 21.3722 29.3333 21.4398V21.1265C29.3318 20.6991 29.2446 20.2763 29.077 19.8831C28.9094 19.4899 28.6647 19.1342 28.3573 18.8372C28.077 18.5595 27.7429 18.3419 27.3754 18.1979C27.008 18.054 26.6151 17.9865 26.2207 17.9998C25.6438 18.0225 25.0863 18.2139 24.6173 18.5505C24.4933 17.8986 24.1706 17.301 23.6933 16.8398C23.413 16.5611 23.0786 16.3428 22.7106 16.1984C22.3427 16.0539 21.9491 15.9863 21.554 15.9998C20.8079 16.0304 20.1004 16.3396 19.5713 16.8665C19.4226 16.6096 19.2388 16.3747 19.0253 16.1685C18.7459 15.8909 18.4126 15.6736 18.0459 15.5299C17.6792 15.3862 17.2869 15.3193 16.8933 15.3332C16.3365 15.3546 15.7971 15.533 15.3373 15.8478L15.3333 5.6665C15.3323 4.87118 15.0159 4.10873 14.4535 3.54635C13.8911 2.98397 13.1287 2.66756 12.3333 2.6665C11.541 2.67703 10.784 2.99648 10.2237 3.55683C9.66331 4.11717 9.34386 4.87413 9.33333 5.6665V23.5138L5.74867 20.3685C5.20259 19.8052 4.4785 19.448 3.69916 19.3576C2.91982 19.2672 2.13319 19.4491 1.47267 19.8725C1.06606 20.1491 0.724963 20.5114 0.473363 20.9339C0.221763 21.3564 0.0657616 21.829 0.0163258 22.3182C-0.0331099 22.8075 0.0252196 23.3017 0.187214 23.766C0.349208 24.2303 0.610936 24.6535 0.953999 25.0058L9.65 33.9012C10.7303 34.9915 11.3354 36.4649 11.3333 37.9998C11.3341 38.2634 11.3869 38.5243 11.4885 38.7675C11.5902 39.0107 11.7388 39.2315 11.9258 39.4173C12.1129 39.603 12.3347 39.75 12.5786 39.85C12.8225 39.95 13.0837 40.0009 13.3473 39.9998H24.6667C25.0231 39.9987 25.3726 39.9015 25.6785 39.7185C25.9843 39.5355 26.2352 39.2734 26.4047 38.9598C27.6604 39.6053 29.0463 39.9574 30.4578 39.9894C31.8694 40.0215 33.2698 39.7328 34.5536 39.145C35.8373 38.5572 36.9709 37.6857 37.8689 36.5962C38.7669 35.5066 39.4059 34.2275 39.7377 32.8551C40.0696 31.4827 40.0856 30.0529 39.7846 28.6735C39.4835 27.294 38.8733 26.0009 37.9999 24.8915C37.1265 23.7821 36.0127 22.8855 34.7425 22.2691C33.4722 21.6527 32.0786 21.3327 30.6667 21.3332ZM24.6667 38.6665H13.3333C13.1565 38.6665 12.987 38.5963 12.8619 38.4712C12.7369 38.3462 12.6667 38.1767 12.6667 37.9998C12.6692 36.1152 11.9262 34.3061 10.6 32.9672L1.904 24.0705C1.69887 23.8577 1.5425 23.6029 1.44576 23.3236C1.34902 23.0443 1.31422 22.7473 1.34378 22.4532C1.37334 22.1592 1.46655 21.8751 1.61694 21.6206C1.76733 21.3662 1.97129 21.1475 2.21467 20.9798C2.62592 20.7268 3.11227 20.6245 3.59062 20.6902C4.06898 20.756 4.50964 20.9859 4.83733 21.3405L9.558 25.4872C9.65423 25.5724 9.77306 25.628 9.90016 25.6472C10.0273 25.6665 10.1572 25.6486 10.2744 25.5957C10.3915 25.5428 10.4909 25.4571 10.5605 25.349C10.6301 25.241 10.667 25.1151 10.6667 24.9865V5.6665C10.6776 5.22793 10.8568 4.81036 11.167 4.50015C11.4772 4.18994 11.8948 4.01082 12.3333 3.99984C12.7754 3.99984 13.1993 4.17543 13.5118 4.48799C13.8244 4.80055 14 5.22448 14 5.6665L14.0067 18.3332C14.0067 18.51 14.0769 18.6796 14.2019 18.8046C14.327 18.9296 14.4965 18.9998 14.6733 18.9998C14.8501 18.9998 15.0197 18.9296 15.1447 18.8046C15.2698 18.6796 15.34 18.51 15.34 18.3332C15.3486 17.9048 15.5183 17.4955 15.8151 17.1866C16.112 16.8778 16.5144 16.6921 16.942 16.6665C17.1568 16.6596 17.3706 16.6975 17.5699 16.7778C17.7691 16.8582 17.9495 16.9792 18.0993 17.1332C18.2789 17.306 18.4222 17.513 18.5206 17.7419C18.6191 17.9709 18.6708 18.2173 18.6727 18.4665V18.9998C18.6727 19.1766 18.7429 19.3462 18.8679 19.4712C18.993 19.5963 19.1625 19.6665 19.3393 19.6665C19.5161 19.6665 19.6857 19.5963 19.8107 19.4712C19.9358 19.3462 20.006 19.1766 20.006 18.9998C20.0139 18.5726 20.1822 18.164 20.4775 17.8552C20.7728 17.5464 21.1736 17.3601 21.6 17.3332C21.8154 17.3289 22.0294 17.3681 22.2294 17.4482C22.4294 17.5284 22.6112 17.648 22.764 17.7998C22.9436 17.9726 23.0868 18.1796 23.1852 18.4086C23.2836 18.6376 23.3351 18.884 23.3367 19.1332V20.9998C23.3367 21.1766 23.4069 21.3462 23.5319 21.4712C23.657 21.5963 23.8265 21.6665 24.0033 21.6665C24.1801 21.6665 24.3497 21.5963 24.4747 21.4712C24.5998 21.3462 24.67 21.1766 24.67 20.9998C24.6779 20.5722 24.8466 20.1632 25.1425 19.8544C25.4384 19.5455 25.8398 19.3594 26.2667 19.3332C26.4817 19.3296 26.6953 19.369 26.8948 19.4491C27.0944 19.5293 27.2759 19.6485 27.4287 19.7998C27.6078 19.9727 27.7505 20.1798 27.8482 20.4089C27.9459 20.6379 27.9966 20.8842 27.9973 21.1332V21.7332C26.3204 22.2309 24.8175 23.1906 23.6604 24.5024C22.5034 25.8142 21.7389 27.4252 21.4544 29.1511C21.17 30.8771 21.377 32.6482 22.0519 34.2619C22.7268 35.8757 23.8422 37.2669 25.2707 38.2765C25.2178 38.3924 25.1328 38.4908 25.0257 38.5599C24.9187 38.629 24.7941 38.666 24.6667 38.6665ZM30.6667 38.6665C29.0844 38.6665 27.5377 38.1973 26.2221 37.3183C24.9065 36.4392 23.8811 35.1898 23.2756 33.728C22.6701 32.2662 22.5117 30.6576 22.8204 29.1058C23.1291 27.5539 23.891 26.1285 25.0098 25.0096C26.1286 23.8908 27.5541 23.1289 29.1059 22.8202C30.6578 22.5115 32.2663 22.67 33.7281 23.2755C35.1899 23.881 36.4394 24.9063 37.3184 26.2219C38.1975 27.5375 38.6667 29.0843 38.6667 30.6665C38.6644 32.7875 37.8208 34.821 36.321 36.3208C34.8212 37.8206 32.7877 38.6642 30.6667 38.6665Z" fill="black"/>
<path d="M29.1381 30.1952C29.013 30.0702 28.8435 30 28.6667 30C28.4899 30 28.3204 30.0702 28.1954 30.1952L27.3334 31.0572L26.4714 30.1952C26.3457 30.0738 26.1772 30.0066 26.0025 30.0081C25.8277 30.0096 25.6604 30.0797 25.5368 30.2033C25.4132 30.3269 25.3431 30.4941 25.3416 30.6689C25.3401 30.8437 25.4073 31.0121 25.5287 31.1379L26.3907 31.9999L25.5287 32.8619C25.465 32.9234 25.4143 32.9969 25.3793 33.0783C25.3444 33.1596 25.326 33.2471 25.3252 33.3356C25.3245 33.4241 25.3413 33.5119 25.3748 33.5938C25.4084 33.6758 25.4579 33.7502 25.5205 33.8128C25.5831 33.8754 25.6575 33.9249 25.7394 33.9584C25.8213 33.9919 25.9091 34.0088 25.9977 34.008C26.0862 34.0073 26.1737 33.9889 26.255 33.9539C26.3363 33.919 26.4099 33.8682 26.4714 33.8045L27.3334 32.9425L28.1954 33.8045C28.3211 33.926 28.4895 33.9932 28.6643 33.9916C28.8391 33.9901 29.0063 33.92 29.1299 33.7964C29.2535 33.6728 29.3237 33.5056 29.3252 33.3308C29.3267 33.156 29.2595 32.9876 29.1381 32.8619L28.2761 31.9999L29.1381 31.1379C29.263 31.0128 29.3332 30.8433 29.3332 30.6665C29.3332 30.4897 29.263 30.3202 29.1381 30.1952Z" fill="black"/>
<path d="M33.5554 31.0399C34.3887 30.3612 35.3334 29.5919 35.3334 28.3026C35.3334 27.6837 35.0876 27.0902 34.65 26.6527C34.2124 26.2151 33.6189 25.9692 33.0001 25.9692C32.3812 25.9692 31.7878 26.2151 31.3502 26.6527C30.9126 27.0902 30.6667 27.6837 30.6667 28.3026C30.6667 28.4794 30.737 28.649 30.862 28.774C30.987 28.899 31.1566 28.9692 31.3334 28.9692C31.5102 28.9692 31.6798 28.899 31.8048 28.774C31.9298 28.649 32.0001 28.4794 32.0001 28.3026C32.0001 28.0374 32.1054 27.783 32.293 27.5955C32.4805 27.4079 32.7349 27.3026 33.0001 27.3026C33.2653 27.3026 33.5197 27.4079 33.7072 27.5955C33.8947 27.783 34.0001 28.0374 34.0001 28.3026C34.0001 28.9266 33.5114 29.3559 32.7134 30.0059C31.8001 30.7486 30.6667 31.6726 30.6667 33.3332C30.6667 33.5101 30.737 33.6796 30.862 33.8046C30.987 33.9297 31.1566 33.9999 31.3334 33.9999H34.6667C34.8436 33.9999 35.0131 33.9297 35.1382 33.8046C35.2632 33.6796 35.3334 33.5101 35.3334 33.3332C35.3334 33.1564 35.2632 32.9869 35.1382 32.8618C35.0131 32.7368 34.8436 32.6666 34.6667 32.6666H32.1147C32.4421 32.0061 32.9394 31.4447 33.5554 31.0399Z" fill="black"/>
<path d="M16.9273 11.4133C17.0438 11.5049 17.1878 11.5545 17.336 11.554C17.4375 11.5541 17.5378 11.5309 17.6291 11.4863C17.7204 11.4417 17.8002 11.3769 17.8626 11.2967C18.8213 10.0702 19.3393 8.55671 19.3333 7C19.3333 5.14348 18.5958 3.36301 17.283 2.05025C15.9703 0.737498 14.1898 0 12.3333 0C10.4768 0 8.6963 0.737498 7.38354 2.05025C6.07079 3.36301 5.33329 5.14348 5.33329 7C5.3282 8.55711 5.84741 10.0706 6.80729 11.2967C6.86026 11.3679 6.92693 11.4279 7.00338 11.473C7.07984 11.5181 7.16453 11.5475 7.25251 11.5595C7.34048 11.5714 7.42995 11.5657 7.51568 11.5426C7.6014 11.5195 7.68165 11.4795 7.75172 11.425C7.82178 11.3705 7.88025 11.3025 7.92369 11.2251C7.96714 11.1477 7.99467 11.0624 8.00469 10.9741C8.01471 10.8859 8.00701 10.7966 7.98204 10.7114C7.95708 10.6262 7.91534 10.5469 7.85929 10.478C7.08232 9.48556 6.66219 8.2604 6.66662 7C6.66662 5.49711 7.26364 4.05577 8.32635 2.99306C9.38906 1.93036 10.8304 1.33333 12.3333 1.33333C13.8362 1.33333 15.2775 1.93036 16.3402 2.99306C17.4029 4.05577 18 5.49711 18 7C18.0045 8.26031 17.5846 9.48545 16.808 10.478C16.7544 10.5472 16.7149 10.6264 16.6919 10.7109C16.6689 10.7953 16.6628 10.8835 16.6739 10.9704C16.685 11.0572 16.713 11.1411 16.7565 11.2171C16.8 11.2931 16.858 11.3598 16.9273 11.4133Z" fill="black"/>
</g>
<defs>
<clipPath id="clip0_358_8850">
<rect width="40" height="40" fill="white"/>
</clipPath>
</defs>
</svg>
